<svg width="24" height="24" viewBox="0 0 24 24" fill="none" xmlns="http://www.w3.org/2000/svg">
<path d="M11.9996 2.82812C6.94206 2.82812 2.82812 6.94262 2.82812 11.9999C2.82812 17.0571 6.94206 21.1714 11.9996 21.1714C17.0569 21.1714 21.1711 17.0571 21.1711 11.9999C21.1711 6.94267 17.0569 2.82812 11.9996 2.82812ZM11.9996 19.7247C7.74006 19.7247 4.27483 16.2592 4.27483 11.9999C4.27483 7.74034 7.74006 4.27511 11.9996 4.27511C16.2592 4.27511 19.7244 7.74034 19.7244 11.9999C19.7244 16.2592 16.2592 19.7247 11.9996 19.7247Z" fill="#59AC58"/>
<path d="M16.3412 8.17325L10.4646 14.1607L7.55285 12.0522C7.18338 11.7846 6.66635 11.8673 6.39822 12.2368C6.13066 12.6068 6.21335 13.1235 6.5831 13.3914L10.0714 15.9172C10.217 16.0227 10.3869 16.0743 10.5562 16.0743C10.7717 16.0743 10.9858 15.9905 11.1461 15.8268L17.5211 9.33153C17.8411 9.00575 17.8363 8.48234 17.51 8.16242C17.1848 7.84278 16.6611 7.84751 16.3412 8.17325Z" fill="#59AC58"/>
</svg>
