<svg width="40" height="40" viewBox="0 0 40 40" fill="none" xmlns="http://www.w3.org/2000/svg">
<rect opacity="0.2" width="40" height="40" rx="20" fill="#F3F2F2"/>
<path d="M14.1656 11.6665H25.8323C26.0533 11.6665 26.2653 11.7543 26.4215 11.9106C26.5778 12.0669 26.6656 12.2788 26.6656 12.4998V28.4523C26.6657 28.5268 26.6458 28.6 26.608 28.6642C26.5702 28.7284 26.5159 28.7813 26.4507 28.8174C26.3855 28.8535 26.3119 28.8714 26.2374 28.8694C26.1629 28.8673 26.0904 28.8453 26.0273 28.8057L19.9989 25.0248L13.9706 28.8048C13.9076 28.8444 13.8351 28.8664 13.7607 28.8685C13.6863 28.8706 13.6127 28.8528 13.5475 28.8168C13.4824 28.7808 13.428 28.728 13.3902 28.6639C13.3523 28.5998 13.3323 28.5268 13.3323 28.4523V12.4998C13.3323 12.2788 13.4201 12.0669 13.5764 11.9106C13.7326 11.7543 13.9446 11.6665 14.1656 11.6665ZM24.9989 13.3332H14.9989V26.1932L19.9989 23.059L24.9989 26.1932V13.3332Z" fill="white"/>
</svg>
