<svg width="36" height="36" viewBox="0 0 36 36" fill="none" xmlns="http://www.w3.org/2000/svg">
<path d="M34.6664 26.1998V31.1998C34.6683 31.664 34.5732 32.1235 34.3872 32.5487C34.2013 32.974 33.9286 33.3558 33.5865 33.6696C33.2445 33.9834 32.8407 34.2223 32.401 34.371C31.9613 34.5197 31.4953 34.5749 31.0331 34.5332C25.9044 33.9759 20.9781 32.2234 16.6497 29.4165C12.6228 26.8576 9.20862 23.4435 6.64973 19.4165C3.83302 15.0685 2.08013 10.1182 1.53306 4.9665C1.49141 4.50561 1.54618 4.0411 1.69389 3.60254C1.8416 3.16398 2.07901 2.76098 2.391 2.4192C2.70299 2.07742 3.08273 1.80435 3.50604 1.61737C3.92935 1.43039 4.38696 1.33361 4.84973 1.33317H9.84973C10.6586 1.32521 11.4427 1.61163 12.056 2.13906C12.6693 2.66648 13.0699 3.39891 13.1831 4.19984C13.3941 5.79995 13.7855 7.37105 14.3497 8.88317C14.574 9.47971 14.6225 10.128 14.4896 10.7513C14.3566 11.3746 14.0478 11.9467 13.5997 12.3998L11.4831 14.5165C13.8557 18.6891 17.3105 22.1439 21.4831 24.5165L23.5997 22.3998C24.0529 21.9517 24.625 21.6429 25.2483 21.51C25.8715 21.3771 26.5199 21.4256 27.1164 21.6498C28.6285 22.2141 30.1996 22.6055 31.7997 22.8165C32.6093 22.9307 33.3487 23.3385 33.8773 23.9623C34.4058 24.5861 34.6867 25.3825 34.6664 26.1998Z" stroke="#3C439B" stroke-width="2" stroke-linecap="round" stroke-linejoin="round"/>
</svg>
