<svg width="18" height="18" viewBox="0 0 18 18" fill="none" xmlns="http://www.w3.org/2000/svg">
<path d="M8.99935 17.3346C4.39685 17.3346 0.666016 13.6038 0.666016 9.0013C0.666016 4.3988 4.39685 0.667969 8.99935 0.667969C13.6018 0.667969 17.3327 4.3988 17.3327 9.0013C17.3327 13.6038 13.6018 17.3346 8.99935 17.3346ZM8.99935 15.668C10.7675 15.668 12.4632 14.9656 13.7134 13.7153C14.9636 12.4651 15.666 10.7694 15.666 9.0013C15.666 7.23319 14.9636 5.5375 13.7134 4.28726C12.4632 3.03701 10.7675 2.33464 8.99935 2.33464C7.23124 2.33464 5.53555 3.03701 4.2853 4.28726C3.03506 5.5375 2.33268 7.23319 2.33268 9.0013C2.33268 10.7694 3.03506 12.4651 4.2853 13.7153C5.53555 14.9656 7.23124 15.668 8.99935 15.668ZM9.83268 9.0013H13.166V10.668H8.16602V4.83464H9.83268V9.0013Z" fill="#AFB1CC"/>
</svg>
