<svg width="19" height="18" viewBox="0 0 19 18" fill="none" xmlns="http://www.w3.org/2000/svg">
<path d="M9.47714 17.9869C4.67009 17.9869 0.773438 14.0812 0.773438 9.26296C0.773438 4.44475 4.67009 0.539062 9.47714 0.539062C14.2842 0.539062 18.1808 4.44475 18.1808 9.26296C18.1808 14.0812 14.2842 17.9869 9.47714 17.9869ZM9.47714 16.2421C11.3238 16.2421 13.0949 15.5068 14.4007 14.1979C15.7065 12.8891 16.4401 11.1139 16.4401 9.26296C16.4401 7.41198 15.7065 5.63682 14.4007 4.32798C13.0949 3.01914 11.3238 2.28384 9.47714 2.28384C7.63045 2.28384 5.85939 3.01914 4.55358 4.32798C3.24777 5.63682 2.51418 7.41198 2.51418 9.26296C2.51418 11.1139 3.24777 12.8891 4.55358 14.1979C5.85939 15.5068 7.63045 16.2421 9.47714 16.2421ZM9.47714 8.0294L11.9385 5.56141L13.1701 6.79584L10.7078 9.26296L13.1701 11.7301L11.9385 12.9645L9.47714 10.4965L7.01573 12.9645L5.78416 11.7301L8.24644 9.26296L5.78416 6.79584L7.01573 5.56141L9.47714 8.0294Z" fill="#D83D59"/>
</svg>
