<svg width="32" height="32" viewBox="0 0 32 32" fill="none" xmlns="http://www.w3.org/2000/svg">
<rect opacity="0.1" width="32" height="32" rx="16" fill="#D5A75A"/>
<g clip-path="url(#clip0_4688_80881)">
<path d="M16.0009 23.7772C11.7053 23.7772 8.22314 20.2951 8.22314 15.9995C8.22314 11.7038 11.7053 8.22168 16.0009 8.22168C20.2966 8.22168 23.7787 11.7038 23.7787 15.9995C23.7787 20.2951 20.2966 23.7772 16.0009 23.7772ZM16.0009 22.2217C17.6512 22.2217 19.2338 21.5661 20.4007 20.3992C21.5676 19.2323 22.2231 17.6497 22.2231 15.9995C22.2231 14.3492 21.5676 12.7666 20.4007 11.5997C19.2338 10.4328 17.6512 9.77724 16.0009 9.77724C14.3507 9.77724 12.768 10.4328 11.6011 11.5997C10.4343 12.7666 9.7787 14.3492 9.7787 15.9995C9.7787 17.6497 10.4343 19.2323 11.6011 20.3992C12.768 21.5661 14.3507 22.2217 16.0009 22.2217ZM16.0009 12.1495L19.8509 15.9995L16.0009 19.8495L12.1509 15.9995L16.0009 12.1495ZM16.0009 14.3498L14.3513 15.9995L16.0009 17.6491L17.6506 15.9995L16.0009 14.3498Z" fill="#D5A75A"/>
</g>
<defs>
<clipPath id="clip0_4688_80881">
<rect width="18.6667" height="18.6667" fill="white" transform="translate(6.66797 6.66602)"/>
</clipPath>
</defs>
</svg>
