<svg width="42" height="42" viewBox="0 0 42 42" fill="none" xmlns="http://www.w3.org/2000/svg">
<rect width="42" height="42" rx="21" fill="#FFF3E0"/>
<path d="M20.9995 28.7782C16.7038 28.7782 13.2217 25.2961 13.2217 21.0004C13.2217 16.7048 16.7038 13.2227 20.9995 13.2227C25.2951 13.2227 28.7772 16.7048 28.7772 21.0004C28.7772 25.2961 25.2951 28.7782 20.9995 28.7782ZM20.9995 27.2227C22.6497 27.2227 24.2323 26.5671 25.3992 25.4002C26.5661 24.2333 27.2217 22.6507 27.2217 21.0004C27.2217 19.3502 26.5661 17.7676 25.3992 16.6007C24.2323 15.4338 22.6497 14.7782 20.9995 14.7782C19.3492 14.7782 17.7666 15.4338 16.5997 16.6007C15.4328 17.7676 14.7772 19.3502 14.7772 21.0004C14.7772 22.6507 15.4328 24.2333 16.5997 25.4002C17.7666 26.5671 19.3492 27.2227 20.9995 27.2227ZM20.9995 17.1504L24.8495 21.0004L20.9995 24.8504L17.1495 21.0004L20.9995 17.1504ZM20.9995 19.3508L19.3498 21.0004L20.9995 22.6501L22.6491 21.0004L20.9995 19.3508Z" fill="#F57C00"/>
</svg>
