<svg width="44" height="42" viewBox="0 0 44 42" fill="none" xmlns="http://www.w3.org/2000/svg">
<rect width="44" height="42" rx="21" fill="#F1F8E9"/>
<path d="M21.9997 27.6654C18.3177 27.6654 15.333 24.6807 15.333 20.9987C15.333 17.3167 18.3177 14.332 21.9997 14.332C25.6817 14.332 28.6663 17.3167 28.6663 20.9987C28.6663 24.6807 25.6817 27.6654 21.9997 27.6654ZM21.9997 26.332C23.4142 26.332 24.7707 25.7701 25.7709 24.7699C26.7711 23.7697 27.333 22.4132 27.333 20.9987C27.333 19.5842 26.7711 18.2277 25.7709 17.2275C24.7707 16.2273 23.4142 15.6654 21.9997 15.6654C20.5852 15.6654 19.2286 16.2273 18.2284 17.2275C17.2282 18.2277 16.6663 19.5842 16.6663 20.9987C16.6663 22.4132 17.2282 23.7697 18.2284 24.7699C19.2286 25.7701 20.5852 26.332 21.9997 26.332ZM22.6663 20.9987H25.333V22.332H21.333V17.6654H22.6663V20.9987Z" fill="#689F38"/>
</svg>
