<svg width="42" height="42" viewBox="0 0 42 42" fill="none" xmlns="http://www.w3.org/2000/svg">
<rect width="42" height="42" rx="21" fill="#F3E5F5"/>
<g clip-path="url(#clip0_1032_62846)">
<path d="M20.9997 20.332C21.8837 20.332 22.7316 20.6832 23.3567 21.3083C23.9818 21.9335 24.333 22.7813 24.333 23.6654V27.6654H22.9997V23.6654C22.9997 23.1552 22.8048 22.6644 22.4548 22.2932C22.1048 21.922 21.6263 21.6986 21.117 21.6687L20.9997 21.6654C20.4895 21.6653 19.9987 21.8602 19.6275 22.2102C19.2563 22.5602 19.0329 23.0388 19.003 23.548L18.9997 23.6654V27.6654H17.6663V23.6654C17.6663 22.7813 18.0175 21.9335 18.6427 21.3083C19.2678 20.6832 20.1156 20.332 20.9997 20.332ZM16.6663 22.332C16.8523 22.332 17.033 22.354 17.2063 22.3947C17.0924 22.734 17.0249 23.0872 17.0057 23.4447L16.9997 23.6654V23.7227C16.923 23.6953 16.8433 23.6774 16.7623 23.6694L16.6663 23.6654C16.4178 23.6654 16.1781 23.758 15.9941 23.9251C15.81 24.0922 15.6949 24.3219 15.671 24.5694L15.6663 24.6654V27.6654H14.333V24.6654C14.333 24.0465 14.5788 23.453 15.0164 23.0154C15.454 22.5779 16.0475 22.332 16.6663 22.332ZM25.333 22.332C25.9518 22.332 26.5453 22.5779 26.9829 23.0154C27.4205 23.453 27.6663 24.0465 27.6663 24.6654V27.6654H26.333V24.6654C26.333 24.4168 26.2404 24.1771 26.0733 23.9931C25.9061 23.8091 25.6764 23.6939 25.429 23.67L25.333 23.6654C25.2163 23.6654 25.1043 23.6854 24.9997 23.722V23.6654C24.9997 23.2214 24.9277 22.7947 24.7937 22.396C24.9663 22.354 25.147 22.332 25.333 22.332ZM16.6663 18.332C17.1084 18.332 17.5323 18.5076 17.8449 18.8202C18.1574 19.1327 18.333 19.5567 18.333 19.9987C18.333 20.4407 18.1574 20.8646 17.8449 21.1772C17.5323 21.4898 17.1084 21.6654 16.6663 21.6654C16.2243 21.6654 15.8004 21.4898 15.4878 21.1772C15.1753 20.8646 14.9997 20.4407 14.9997 19.9987C14.9997 19.5567 15.1753 19.1327 15.4878 18.8202C15.8004 18.5076 16.2243 18.332 16.6663 18.332ZM25.333 18.332C25.775 18.332 26.199 18.5076 26.5115 18.8202C26.8241 19.1327 26.9997 19.5567 26.9997 19.9987C26.9997 20.4407 26.8241 20.8646 26.5115 21.1772C26.199 21.4898 25.775 21.6654 25.333 21.6654C24.891 21.6654 24.4671 21.4898 24.1545 21.1772C23.8419 20.8646 23.6663 20.4407 23.6663 19.9987C23.6663 19.5567 23.8419 19.1327 24.1545 18.8202C24.4671 18.5076 24.891 18.332 25.333 18.332ZM16.6663 19.6654C16.5779 19.6654 16.4932 19.7005 16.4306 19.763C16.3681 19.8255 16.333 19.9103 16.333 19.9987C16.333 20.0871 16.3681 20.1719 16.4306 20.2344C16.4932 20.2969 16.5779 20.332 16.6663 20.332C16.7547 20.332 16.8395 20.2969 16.902 20.2344C16.9646 20.1719 16.9997 20.0871 16.9997 19.9987C16.9997 19.9103 16.9646 19.8255 16.902 19.763C16.8395 19.7005 16.7547 19.6654 16.6663 19.6654ZM25.333 19.6654C25.2446 19.6654 25.1598 19.7005 25.0973 19.763C25.0348 19.8255 24.9997 19.9103 24.9997 19.9987C24.9997 20.0871 25.0348 20.1719 25.0973 20.2344C25.1598 20.2969 25.2446 20.332 25.333 20.332C25.4214 20.332 25.5062 20.2969 25.5687 20.2344C25.6312 20.1719 25.6663 20.0871 25.6663 19.9987C25.6663 19.9103 25.6312 19.8255 25.5687 19.763C25.5062 19.7005 25.4214 19.6654 25.333 19.6654ZM20.9997 14.332C21.7069 14.332 22.3852 14.613 22.8853 15.1131C23.3854 15.6132 23.6663 16.2915 23.6663 16.9987C23.6663 17.7059 23.3854 18.3842 22.8853 18.8843C22.3852 19.3844 21.7069 19.6654 20.9997 19.6654C20.2924 19.6654 19.6142 19.3844 19.1141 18.8843C18.614 18.3842 18.333 17.7059 18.333 16.9987C18.333 16.2915 18.614 15.6132 19.1141 15.1131C19.6142 14.613 20.2924 14.332 20.9997 14.332ZM20.9997 15.6654C20.6461 15.6654 20.3069 15.8058 20.0569 16.0559C19.8068 16.3059 19.6663 16.6451 19.6663 16.9987C19.6663 17.3523 19.8068 17.6915 20.0569 17.9415C20.3069 18.1916 20.6461 18.332 20.9997 18.332C21.3533 18.332 21.6924 18.1916 21.9425 17.9415C22.1925 17.6915 22.333 17.3523 22.333 16.9987C22.333 16.6451 22.1925 16.3059 21.9425 16.0559C21.6924 15.8058 21.3533 15.6654 20.9997 15.6654Z" fill="#8E24AA"/>
</g>
<defs>
<clipPath id="clip0_1032_62846">
<rect width="16" height="16" fill="white" transform="translate(13 13)"/>
</clipPath>
</defs>
</svg>
