<svg width="40" height="40" viewBox="0 0 40 40" fill="none" xmlns="http://www.w3.org/2000/svg">
<rect width="40" height="40" fill="white"/>
<path d="M11.6673 36.6663H6.66732C5.78326 36.6663 4.93542 36.3152 4.31029 35.69C3.68517 35.0649 3.33398 34.2171 3.33398 33.333V21.6663C3.33398 20.7823 3.68517 19.9344 4.31029 19.3093C4.93542 18.6842 5.78326 18.333 6.66732 18.333H11.6673M23.334 14.9997V8.33301C23.334 7.00693 22.8072 5.73516 21.8695 4.79747C20.9318 3.85979 19.6601 3.33301 18.334 3.33301L11.6673 18.333V36.6663H30.4673C31.2712 36.6754 32.0513 36.3937 32.6638 35.873C33.2764 35.3524 33.6801 34.6278 33.8007 33.833L36.1007 18.833C36.1732 18.3553 36.1409 17.8675 36.0062 17.4034C35.8715 16.9394 35.6375 16.5102 35.3204 16.1455C35.0033 15.7809 34.6108 15.4896 34.1699 15.2917C33.7291 15.0938 33.2505 14.9942 32.7673 14.9997H23.334Z" stroke="#3C439B" stroke-width="2" stroke-linecap="round" stroke-linejoin="round"/>
</svg>
