<svg width="75" height="49" viewBox="0 0 75 49" fill="none" xmlns="http://www.w3.org/2000/svg">
<g clip-path="url(#clip0_1114_85041)">
<path d="M24.0235 43.8108C21.3411 41.3072 18.6588 38.7035 16.9517 35.5991C15.2448 32.2944 14.7571 28.489 15.6106 24.8838C16.4641 21.2787 18.4149 17.8738 21.2192 14.9696C20.9754 17.4733 22.0727 20.0769 24.1454 21.9797C22.9261 17.1728 24.877 11.9654 28.7786 8.15995C32.6802 4.35454 38.045 1.85084 43.6535 0.148438C40.8493 2.55187 40.4835 6.35728 41.5808 9.56192C42.6781 12.7665 44.9948 15.5705 47.0675 18.4746C49.1402 21.3787 51.091 24.383 51.213 27.6877C52.3103 25.9853 53.5296 24.2829 54.2612 22.3802C54.9927 20.4774 55.3585 18.4746 54.7489 16.5719C56.9436 18.775 58.1629 20.9781 58.7725 23.7822C59.3821 26.5862 59.2602 29.4903 58.8944 32.2944C58.4067 35.3988 57.4313 38.6034 55.3586 41.2071C52.9201 44.3115 49.0184 46.5146 44.7511 47.7163C37.1915 48.818 29.754 47.9167 24.0235 43.8108Z" fill="#98F09F"/>
<path d="M32.2242 47.4524C44.9522 50.6627 57.5252 40.9316 50.5402 33.4076C50.5402 33.3072 50.3849 33.3072 50.3849 33.207C51.0059 37.3201 49.4536 40.3297 46.5044 42.0352C48.0566 39.6275 46.97 36.8185 45.1074 34.4108C43.2447 32.1035 40.606 29.9967 38.5881 27.7897C36.5701 25.4823 35.018 22.8739 35.9493 20.2656C32.224 22.0714 29.5853 24.78 28.4987 27.6893C27.4121 30.5986 28.033 33.8089 30.051 36.5175C27.7226 35.414 26.0153 33.6083 25.86 31.7022C23.3764 33.6083 21.8243 36.1162 21.9794 38.6243C21.9795 42.5368 26.7913 46.048 32.2242 47.4524Z" fill="#12BF73"/>
</g>
<defs>
<clipPath id="clip0_1114_85041">
<rect width="74.4" height="48.0851" fill="white"/>
</clipPath>
</defs>
</svg>
