<svg width="75" height="49" viewBox="0 0 75 49" fill="none" xmlns="http://www.w3.org/2000/svg">
<g clip-path="url(#clip0_1114_85048)">
<path d="M24.6224 43.8108C22.0619 41.3072 19.5015 38.7035 17.8721 35.5991C16.2427 32.2944 15.7772 28.489 16.5919 24.8838C17.4066 21.2787 19.2687 17.8738 21.9456 14.9696C21.7129 17.4733 22.7603 20.0769 24.7388 21.9797C23.5749 17.1728 25.4371 11.9654 29.1613 8.15995C32.8856 4.35454 38.0066 1.85084 43.3601 0.148438C40.6833 2.55187 40.3342 6.35728 41.3816 9.56192C42.4291 12.7665 44.6404 15.5705 46.6189 18.4746C48.5974 21.3787 50.4596 24.383 50.576 27.6877C51.6235 25.9853 52.7873 24.2829 53.4856 22.3802C54.1839 20.4774 54.5331 18.4746 53.9512 16.5719C56.0461 18.775 57.21 20.9781 57.7919 23.7822C58.3738 26.5862 58.2574 29.4903 57.9083 32.2944C57.4427 35.3988 56.5117 38.6034 54.5332 41.2071C52.2056 44.3115 48.4812 46.5146 44.4078 47.7163C37.1918 48.818 30.0924 47.9167 24.6224 43.8108Z" fill="#FFCA7A"/>
<path d="M32.3218 47.4524C45.0499 50.6627 57.6228 40.9316 50.6379 33.4076C50.6379 33.3072 50.4826 33.3072 50.4826 33.207C51.1035 37.3201 49.5513 40.3297 46.602 42.0352C48.1543 39.6275 47.0677 36.8185 45.205 34.4108C43.3424 32.1035 40.7036 29.9967 38.6857 27.7897C36.6678 25.4823 35.1157 22.8739 36.047 20.2656C32.3217 22.0714 29.683 24.78 28.5964 27.6893C27.5098 30.5986 28.1307 33.8089 30.1486 36.5175C27.8203 35.414 26.1129 33.6083 25.9576 31.7022C23.474 33.6083 21.9219 36.1162 22.0771 38.6243C22.0772 42.5368 26.889 46.048 32.3218 47.4524Z" fill="#FF8A00"/>
</g>
<defs>
<clipPath id="clip0_1114_85048">
<rect width="74.4" height="48.0851" fill="white" transform="translate(0.0976562)"/>
</clipPath>
</defs>
</svg>
