<svg width="129" height="96" viewBox="0 0 129 96" fill="none" xmlns="http://www.w3.org/2000/svg">
<g opacity="0.4" clip-path="url(#clip0_3656_16311)">
<path d="M231.75 116L182.75 80.25L130 61L77.25 30.5L10 45.75L73.75 87L31.625 115.875L10 45.75L-49.25 19.25L25.5 -8.5L-7.75 -46.75L31.625 -84.125L-17.25 -119.75M192.25 -46.75L259.25 -38.775L192.25 -46.75Z" stroke="#EFEFEF" stroke-width="0.5"/>
<path d="M92.5 122.25L73.75 87M-7.75 -46.75L59.25 -38.75L97.5 -8.5L150.75 19.25L77.125 30.375L25.375 -8.625L-7.75 -46.75Z" stroke="#EFEFEF" stroke-width="0.5"/>
<path d="M130 61L144.5 106.5L182.75 80.25L210 45.75L150.75 19.25L130 61ZM130 61L73.75 87L77.25 30.5L97.5 -8.5L134.75 -36.75L192.25 -46.75L144.375 -93.625L92.5 -77.75L73.75 -113L31.625 -84.125L59.25 -38.75L25.5 -8.5L10 45.75L-17.25 80.25L31.75 116" stroke="#EFEFEF" stroke-width="0.5"/>
<path d="M97.5 -8.5H25.5M130 -139L144.625 -93.375L182.75 -119.75L130 -139ZM150.75 19.25L134.75 -36.75L59.25 -38.75L92.5 -77.75L150.75 19.25ZM225.5 -8.5L134.75 -36.75L225.5 -8.5Z" stroke="#EFEFEF" stroke-width="0.5"/>
<path d="M25.5 -8.5L-65.25 -36.75M-55.5 -93.5L31.625 -84.125L92.5 -77.75L134.75 -36.75L144.375 -93.625L231.75 -84L192.25 -46.75L225.5 -8.5L150.75 19.25L182.75 80.25L-55.5 -93.5ZM73.75 -113L144.375 -93.625L73.75 -113ZM144.5 106.5L73.75 87L144.5 106.5ZM10 -154.25L31.75 -84L10 -154.25Z" stroke="#EFEFEF" stroke-width="0.5"/>
<path d="M130 62.25C130.69 62.25 131.25 61.6904 131.25 61C131.25 60.3096 130.69 59.75 130 59.75C129.31 59.75 128.75 60.3096 128.75 61C128.75 61.6904 129.31 62.25 130 62.25Z" fill="white"/>
<path d="M77.25 31.75C77.9404 31.75 78.5 31.1904 78.5 30.5C78.5 29.8096 77.9404 29.25 77.25 29.25C76.5596 29.25 76 29.8096 76 30.5C76 31.1904 76.5596 31.75 77.25 31.75Z" fill="white"/>
<path d="M73.75 88.25C74.4404 88.25 75 87.6904 75 87C75 86.3096 74.4404 85.75 73.75 85.75C73.0596 85.75 72.5 86.3096 72.5 87C72.5 87.6904 73.0596 88.25 73.75 88.25Z" fill="white"/>
<path d="M10 47C10.6904 47 11.25 46.4404 11.25 45.75C11.25 45.0596 10.6904 44.5 10 44.5C9.30964 44.5 8.75 45.0596 8.75 45.75C8.75 46.4404 9.30964 47 10 47Z" fill="white"/>
</g>
<defs>
<clipPath id="clip0_3656_16311">
<rect width="200" height="200" fill="white" transform="translate(0 -104)"/>
</clipPath>
</defs>
</svg>
