<svg width="18" height="17" viewBox="0 0 18 17" fill="none" xmlns="http://www.w3.org/2000/svg">
<path d="M0.138688 1.28255C0.138688 0.800987 0.534706 0.410156 1.0021 0.410156H16.6827C17.1597 0.410156 17.5461 0.79837 17.5461 1.28255V13.496C17.5461 13.9776 17.1501 14.3684 16.6827 14.3684H1.0021C0.888188 14.3682 0.775447 14.3454 0.670342 14.3014C0.565237 14.2574 0.469837 14.193 0.389616 14.1119C0.309396 14.0309 0.245934 13.9348 0.202873 13.8291C0.159812 13.7234 0.138 13.6102 0.138688 13.496V1.28255ZM1.87943 2.15494V12.6236H15.8054V2.15494H1.87943ZM2.7498 15.2408H14.935V16.9856H2.7498V15.2408Z" fill="#626168"/>
</svg>
