<svg width="312" height="217" viewBox="0 0 312 217" fill="none" xmlns="http://www.w3.org/2000/svg">
<rect opacity="0.3" width="8" height="217" fill="#BBBBBD"/>
<path d="M24.9668 15.9795H29.2295C29.3271 16.8389 29.7812 17.5371 30.5918 18.0742C31.4121 18.6016 32.4131 18.8652 33.5947 18.8652C34.7666 18.8652 35.7188 18.6162 36.4512 18.1182C37.1934 17.6104 37.5645 16.9658 37.5645 16.1846C37.5645 15.501 37.291 14.9492 36.7441 14.5293C36.1973 14.1094 35.2842 13.7578 34.0049 13.4746L31.251 12.874C27.374 12.0439 25.4355 10.0762 25.4355 6.9707C25.4355 5.03711 26.1875 3.47461 27.6914 2.2832C29.2051 1.0918 31.1484 0.496094 33.5215 0.496094C35.9629 0.496094 37.9111 1.07715 39.3662 2.23926C40.8213 3.3916 41.5684 4.92969 41.6074 6.85352H37.4619C37.3936 5.96484 36.998 5.2666 36.2754 4.75879C35.5625 4.24121 34.6494 3.98242 33.5361 3.98242C32.4424 3.98242 31.5586 4.22168 30.8848 4.7002C30.2207 5.17871 29.8887 5.80859 29.8887 6.58984C29.8887 7.23438 30.1572 7.75684 30.6943 8.15723C31.2412 8.55762 32.125 8.89941 33.3457 9.18262L35.9092 9.72461C38.0283 10.1738 39.5713 10.877 40.5381 11.834C41.5049 12.7812 41.9883 14.0605 41.9883 15.6719C41.9883 17.7227 41.2168 19.3535 39.6738 20.5645C38.1309 21.7656 36.0459 22.3662 33.4189 22.3662C30.8701 22.3662 28.8389 21.7998 27.3252 20.667C25.8213 19.5244 25.0352 17.9619 24.9668 15.9795ZM59.3168 18.3379V22H45.3129V0.862305H59.3168V4.50977H49.7367V9.60742H58.7748V13.0059H49.7367V18.3379H59.3168ZM76.7771 18.3379V22H63.1102V0.862305H67.534V18.3379H76.7771ZM94.0031 18.3379V22H79.9992V0.862305H94.0031V4.50977H84.423V9.60742H93.4611V13.0059H84.423V18.3379H94.0031ZM107.142 22.3662C104.056 22.3662 101.615 21.3945 99.818 19.4512C98.0309 17.498 97.1373 14.8223 97.1373 11.4238C97.1373 8.03516 98.0357 5.36914 99.8326 3.42578C101.629 1.47266 104.066 0.496094 107.142 0.496094C108.822 0.496094 110.345 0.828125 111.713 1.49219C113.089 2.15625 114.193 3.09375 115.023 4.30469C115.853 5.51563 116.322 6.89746 116.429 8.4502H112.123C111.918 7.15137 111.356 6.11133 110.438 5.33008C109.53 4.54883 108.431 4.1582 107.142 4.1582C105.472 4.1582 104.139 4.8125 103.143 6.12109C102.147 7.42969 101.649 9.19238 101.649 11.4092C101.649 13.665 102.142 15.4473 103.129 16.7559C104.115 18.0547 105.458 18.7041 107.157 18.7041C108.465 18.7041 109.564 18.3428 110.453 17.6201C111.341 16.8975 111.903 15.9111 112.137 14.6611H116.444C116.2 17.0146 115.238 18.8896 113.558 20.2861C111.879 21.6729 109.74 22.3662 107.142 22.3662ZM128.587 22H124.163V4.50977H118.055V0.862305H134.71V4.50977H128.587V22ZM158.146 22L156.535 16.873H149.108L147.497 22H142.956L150.295 0.862305H155.495L162.848 22H158.146ZM152.77 4.90527L150.06 13.5625H155.583L152.873 4.90527H152.77ZM30.1816 54H25.7578V32.8623H39.6006V36.5098H30.1816V42.1787H38.7803V45.6797H30.1816V54ZM56.8266 50.3379V54H42.8227V32.8623H56.8266V36.5098H47.2465V41.6074H56.2846V45.0059H47.2465V50.3379H56.8266ZM74.2869 50.3379V54H60.6199V32.8623H65.0438V50.3379H74.2869ZM91.176 50.3379V54H77.509V32.8623H81.9328V50.3379H91.176ZM95.5992 35.4404C97.4352 33.4775 99.9205 32.4961 103.055 32.4961C106.19 32.4961 108.671 33.4775 110.497 35.4404C112.333 37.4033 113.251 40.0693 113.251 43.4385C113.251 46.7979 112.333 49.459 110.497 51.4219C108.661 53.3848 106.18 54.3662 103.055 54.3662C99.9205 54.3662 97.4352 53.3848 95.5992 51.4219C93.773 49.459 92.86 46.7979 92.86 43.4385C92.86 40.0693 93.773 37.4033 95.5992 35.4404ZM107.186 38.1504C106.161 36.8418 104.784 36.1875 103.055 36.1875C101.327 36.1875 99.9449 36.8418 98.9098 38.1504C97.8844 39.459 97.3717 41.2217 97.3717 43.4385C97.3717 45.6455 97.8844 47.4033 98.9098 48.7119C99.9352 50.0107 101.317 50.6602 103.055 50.6602C104.784 50.6602 106.161 50.0107 107.186 48.7119C108.212 47.4033 108.724 45.6455 108.724 43.4385C108.724 41.2217 108.212 39.459 107.186 38.1504ZM128.631 39.5566L124.617 54H120.442L114.847 32.8623H119.432L122.757 48.1699H122.874L126.829 32.8623H130.564L134.52 48.1699H134.637L137.977 32.8623H142.562L136.951 54H132.776L128.763 39.5566H128.631ZM144.524 47.9795H148.787C148.884 48.8389 149.338 49.5371 150.149 50.0742C150.969 50.6016 151.97 50.8652 153.152 50.8652C154.324 50.8652 155.276 50.6162 156.008 50.1182C156.75 49.6104 157.121 48.9658 157.121 48.1846C157.121 47.501 156.848 46.9492 156.301 46.5293C155.754 46.1094 154.841 45.7578 153.562 45.4746L150.808 44.874C146.931 44.0439 144.993 42.0762 144.993 38.9707C144.993 37.0371 145.745 35.4746 147.248 34.2832C148.762 33.0918 150.705 32.4961 153.079 32.4961C155.52 32.4961 157.468 33.0771 158.923 34.2393C160.378 35.3916 161.125 36.9297 161.164 38.8535H157.019C156.951 37.9648 156.555 37.2666 155.832 36.7588C155.12 36.2412 154.206 35.9824 153.093 35.9824C151.999 35.9824 151.116 36.2217 150.442 36.7002C149.778 37.1787 149.446 37.8086 149.446 38.5898C149.446 39.2344 149.714 39.7568 150.251 40.1572C150.798 40.5576 151.682 40.8994 152.903 41.1826L155.466 41.7246C157.585 42.1738 159.128 42.877 160.095 43.834C161.062 44.7812 161.545 46.0605 161.545 47.6719C161.545 49.7227 160.774 51.3535 159.231 52.5645C157.688 53.7656 155.603 54.3662 152.976 54.3662C150.427 54.3662 148.396 53.7998 146.882 52.667C145.378 51.5244 144.592 49.9619 144.524 47.9795ZM183.239 54H178.815V45.0938H169.294V54H164.87V32.8623H169.294V41.4463H178.815V32.8623H183.239V54ZM191.779 54H187.355V32.8623H191.779V54ZM195.894 32.8623H204.493C206.671 32.8623 208.433 33.5264 209.781 34.8545C211.138 36.1826 211.817 37.9307 211.817 40.0986C211.817 42.2568 211.119 44.0049 209.722 45.3428C208.326 46.6709 206.509 47.335 204.273 47.335H200.318V54H195.894V32.8623ZM200.318 36.3633V43.8779H203.306C204.576 43.8779 205.562 43.5508 206.265 42.8965C206.968 42.2422 207.32 41.3145 207.32 40.1133C207.32 38.9121 206.968 37.9893 206.265 37.3447C205.572 36.6904 204.59 36.3633 203.321 36.3633H200.318ZM35.1035 86.3662C32.0176 86.3662 29.5762 85.3945 27.7793 83.4512C25.9922 81.498 25.0986 78.8223 25.0986 75.4238C25.0986 72.0352 25.9971 69.3691 27.7939 67.4258C29.5908 65.4727 32.0273 64.4961 35.1035 64.4961C36.7832 64.4961 38.3066 64.8281 39.6738 65.4922C41.0508 66.1562 42.1543 67.0938 42.9844 68.3047C43.8145 69.5156 44.2832 70.8975 44.3906 72.4502H40.084C39.8789 71.1514 39.3174 70.1113 38.3994 69.3301C37.4912 68.5488 36.3926 68.1582 35.1035 68.1582C33.4336 68.1582 32.1006 68.8125 31.1045 70.1211C30.1084 71.4297 29.6104 73.1924 29.6104 75.4092C29.6104 77.665 30.1035 79.4473 31.0898 80.7559C32.0762 82.0547 33.4189 82.7041 35.1182 82.7041C36.4268 82.7041 37.5254 82.3428 38.4141 81.6201C39.3027 80.8975 39.8643 79.9111 40.0986 78.6611H44.4053C44.1611 81.0146 43.1992 82.8896 41.5195 84.2861C39.8398 85.6729 37.7012 86.3662 35.1035 86.3662ZM49.8246 67.4404C51.6605 65.4775 54.1459 64.4961 57.2807 64.4961C60.4154 64.4961 62.8959 65.4775 64.7221 67.4404C66.558 69.4033 67.476 72.0693 67.476 75.4385C67.476 78.7979 66.558 81.459 64.7221 83.4219C62.8861 85.3848 60.4057 86.3662 57.2807 86.3662C54.1459 86.3662 51.6605 85.3848 49.8246 83.4219C47.9984 81.459 47.0854 78.7979 47.0854 75.4385C47.0854 72.0693 47.9984 69.4033 49.8246 67.4404ZM61.4115 70.1504C60.3861 68.8418 59.0092 68.1875 57.2807 68.1875C55.5521 68.1875 54.1703 68.8418 53.1352 70.1504C52.1098 71.459 51.5971 73.2217 51.5971 75.4385C51.5971 77.6455 52.1098 79.4033 53.1352 80.7119C54.1605 82.0107 55.5424 82.6602 57.2807 82.6602C59.0092 82.6602 60.3861 82.0107 61.4115 80.7119C62.4369 79.4033 62.9496 77.6455 62.9496 75.4385C62.9496 73.2217 62.4369 71.459 61.4115 70.1504ZM75.3563 64.8623V78.0898C75.3563 79.4668 75.742 80.5605 76.5135 81.3711C77.2947 82.1719 78.3885 82.5723 79.7947 82.5723C81.1912 82.5723 82.2752 82.1719 83.0467 81.3711C83.8279 80.5605 84.2186 79.4668 84.2186 78.0898V64.8623H88.6424V78.5293C88.6424 80.873 87.8367 82.7676 86.2254 84.2129C84.6238 85.6484 82.4803 86.3662 79.7947 86.3662C77.0994 86.3662 74.9461 85.6484 73.3348 84.2129C71.7332 82.7676 70.9324 80.873 70.9324 78.5293V64.8623H75.3563ZM97.1965 68.3193V75.0576H101.005C102.118 75.0576 102.983 74.7598 103.598 74.1641C104.223 73.5684 104.535 72.7432 104.535 71.6885C104.535 70.6631 104.213 69.8477 103.569 69.2422C102.924 68.627 102.055 68.3193 100.961 68.3193H97.1965ZM97.1965 78.2656V86H92.7727V64.8623H101.43C103.842 64.8623 105.717 65.4629 107.055 66.6641C108.403 67.8555 109.076 69.501 109.076 71.6006C109.076 72.9775 108.735 74.208 108.051 75.292C107.377 76.3662 106.44 77.1377 105.238 77.6064L109.692 86H104.682L100.741 78.2656H97.1965ZM111.8 79.9795H116.063C116.161 80.8389 116.615 81.5371 117.425 82.0742C118.246 82.6016 119.247 82.8652 120.428 82.8652C121.6 82.8652 122.552 82.6162 123.285 82.1182C124.027 81.6104 124.398 80.9658 124.398 80.1846C124.398 79.501 124.125 78.9492 123.578 78.5293C123.031 78.1094 122.118 77.7578 120.838 77.4746L118.085 76.874C114.208 76.0439 112.269 74.0762 112.269 70.9707C112.269 69.0371 113.021 67.4746 114.525 66.2832C116.039 65.0918 117.982 64.4961 120.355 64.4961C122.796 64.4961 124.745 65.0771 126.2 66.2393C127.655 67.3916 128.402 68.9297 128.441 70.8535H124.296C124.227 69.9648 123.832 69.2666 123.109 68.7588C122.396 68.2412 121.483 67.9824 120.37 67.9824C119.276 67.9824 118.392 68.2217 117.718 68.7002C117.054 69.1787 116.722 69.8086 116.722 70.5898C116.722 71.2344 116.991 71.7568 117.528 72.1572C118.075 72.5576 118.959 72.8994 120.179 73.1826L122.743 73.7246C124.862 74.1738 126.405 74.877 127.372 75.834C128.338 76.7812 128.822 78.0605 128.822 79.6719C128.822 81.7227 128.05 83.3535 126.507 84.5645C124.964 85.7656 122.879 86.3662 120.253 86.3662C117.704 86.3662 115.672 85.7998 114.159 84.667C112.655 83.5244 111.869 81.9619 111.8 79.9795ZM146.15 82.3379V86H132.146V64.8623H146.15V68.5098H136.57V73.6074H145.608V77.0059H136.57V82.3379H146.15ZM170.334 86L168.722 80.873H161.296L159.684 86H155.143L162.482 64.8623H167.682L175.036 86H170.334ZM164.958 68.9053L162.248 77.5625H167.77L165.06 68.9053H164.958ZM182.037 86H177.804V64.8623H181.495L191.368 78.6318H191.486V64.8623H195.719V86H192.057L182.169 72.1572H182.037V86ZM199.849 64.8623H207.921C211.104 64.8623 213.58 65.7754 215.347 67.6016C217.115 69.4277 217.999 72.0107 217.999 75.3506C217.999 78.7002 217.11 81.3125 215.333 83.1875C213.565 85.0625 211.094 86 207.921 86H199.849V64.8623ZM204.273 68.5098V82.3379H207.393C209.376 82.3379 210.884 81.7471 211.92 80.5654C212.964 79.374 213.487 77.6406 213.487 75.3652C213.487 73.1582 212.96 71.4639 211.905 70.2822C210.85 69.1006 209.346 68.5098 207.393 68.5098H204.273ZM246.899 77.123C246.899 80.0039 246.069 82.2646 244.409 83.9053C242.758 85.5459 240.463 86.3662 237.524 86.3662C234.36 86.3662 231.87 85.3896 230.053 83.4365C228.246 81.4834 227.343 78.793 227.343 75.3652C227.343 71.9863 228.242 69.3301 230.038 67.3965C231.845 65.4629 234.306 64.4961 237.421 64.4961C239.882 64.4961 241.967 65.1602 243.676 66.4883C245.385 67.8164 246.396 69.5498 246.708 71.6885H242.27C241.948 70.585 241.357 69.7207 240.497 69.0957C239.648 68.4707 238.627 68.1582 237.436 68.1582C235.688 68.1582 234.321 68.7881 233.334 70.0479C232.348 71.3076 231.855 73.0605 231.855 75.3066C231.855 77.5918 232.368 79.3936 233.393 80.7119C234.428 82.0303 235.829 82.6895 237.597 82.6895C239.042 82.6895 240.219 82.2842 241.127 81.4736C242.045 80.6631 242.529 79.6035 242.578 78.2949L242.592 77.958H237.993V74.7354H246.899V77.123ZM264.432 82.3379V86H250.429V64.8623H264.432V68.5098H254.852V73.6074H263.89V77.0059H254.852V82.3379H264.432ZM277.703 86H273.279V68.5098H267.171V64.8623H283.826V68.5098H277.703V86ZM39.6006 118L37.9893 112.873H30.5625L28.9512 118H24.4102L31.749 96.8623H36.9492L44.3027 118H39.6006ZM34.2246 100.905L31.5146 109.562H37.0371L34.3271 100.905H34.2246ZM65.4398 118H61.016V109.094H51.4945V118H47.0707V96.8623H51.4945V105.446H61.016V96.8623H65.4398V118ZM83.5594 114.338V118H69.5555V96.8623H83.5594V100.51H73.9793V105.607H83.0174V109.006H73.9793V114.338H83.5594ZM101.196 118L99.5842 112.873H92.1574L90.5461 118H86.0051L93.3439 96.8623H98.5441L105.898 118H101.196ZM95.8195 100.905L93.1096 109.562H98.632L95.9221 100.905H95.8195ZM108.666 96.8623H116.737C119.921 96.8623 122.396 97.7754 124.164 99.6016C125.931 101.428 126.815 104.011 126.815 107.351C126.815 110.7 125.926 113.312 124.149 115.188C122.381 117.062 119.911 118 116.737 118H108.666V96.8623ZM113.089 100.51V114.338H116.21C118.192 114.338 119.701 113.747 120.736 112.565C121.781 111.374 122.303 109.641 122.303 107.365C122.303 105.158 121.776 103.464 120.721 102.282C119.667 101.101 118.163 100.51 116.21 100.51H113.089ZM141.243 118H136.819V96.8623H141.243V118ZM149.592 118H145.358V96.8623H149.05L158.923 110.632H159.04V96.8623H163.273V118H159.611L149.723 104.157H149.592V118ZM184.38 118H179.957V110.104L172.603 96.8623H177.422L182.154 105.886H182.256L187.003 96.8623H191.749L184.38 110.104V118ZM195.322 99.4404C197.158 97.4775 199.644 96.4961 202.778 96.4961C205.913 96.4961 208.394 97.4775 210.22 99.4404C212.056 101.403 212.974 104.069 212.974 107.438C212.974 110.798 212.056 113.459 210.22 115.422C208.384 117.385 205.903 118.366 202.778 118.366C199.644 118.366 197.158 117.385 195.322 115.422C193.496 113.459 192.583 110.798 192.583 107.438C192.583 104.069 193.496 101.403 195.322 99.4404ZM206.909 102.15C205.884 100.842 204.507 100.188 202.778 100.188C201.05 100.188 199.668 100.842 198.633 102.15C197.607 103.459 197.095 105.222 197.095 107.438C197.095 109.646 197.607 111.403 198.633 112.712C199.658 114.011 201.04 114.66 202.778 114.66C204.507 114.66 205.884 114.011 206.909 112.712C207.935 111.403 208.447 109.646 208.447 107.438C208.447 105.222 207.935 103.459 206.909 102.15ZM220.854 96.8623V110.09C220.854 111.467 221.24 112.561 222.011 113.371C222.792 114.172 223.886 114.572 225.292 114.572C226.689 114.572 227.773 114.172 228.544 113.371C229.326 112.561 229.716 111.467 229.716 110.09V96.8623H234.14V110.529C234.14 112.873 233.334 114.768 231.723 116.213C230.121 117.648 227.978 118.366 225.292 118.366C222.597 118.366 220.444 117.648 218.832 116.213C217.231 114.768 216.43 112.873 216.43 110.529V96.8623H220.854ZM242.694 100.319V107.058H246.503C247.616 107.058 248.48 106.76 249.096 106.164C249.721 105.568 250.033 104.743 250.033 103.688C250.033 102.663 249.711 101.848 249.066 101.242C248.422 100.627 247.553 100.319 246.459 100.319H242.694ZM242.694 110.266V118H238.27V96.8623H246.928C249.34 96.8623 251.215 97.4629 252.553 98.6641C253.9 99.8555 254.574 101.501 254.574 103.601C254.574 104.978 254.232 106.208 253.549 107.292C252.875 108.366 251.937 109.138 250.736 109.606L255.189 118H250.179L246.239 110.266H242.694ZM48.1406 150H44.2002V135.732H44.083L38.3408 149.795H35.5576L29.8154 135.732H29.6982V150H25.7578V128.862H30.8848L36.8906 143.848H37.0078L43.0137 128.862H48.1406V150ZM66.2602 146.338V150H52.2563V128.862H66.2602V132.51H56.6801V137.607H65.7182V141.006H56.6801V146.338H66.2602ZM70.0535 128.862H78.1248C81.3084 128.862 83.784 129.775 85.5516 131.602C87.3191 133.428 88.2029 136.011 88.2029 139.351C88.2029 142.7 87.3143 145.312 85.5369 147.188C83.7693 149.062 81.2986 150 78.1248 150H70.0535V128.862ZM74.4773 132.51V146.338H77.5975C79.5799 146.338 81.0887 145.747 82.1238 144.565C83.1688 143.374 83.6912 141.641 83.6912 139.365C83.6912 137.158 83.1639 135.464 82.1092 134.282C81.0545 133.101 79.5506 132.51 77.5975 132.51H74.4773ZM96.0832 150H91.6594V128.862H96.0832V150ZM109.545 150.366C106.459 150.366 104.017 149.395 102.22 147.451C100.433 145.498 99.5396 142.822 99.5396 139.424C99.5396 136.035 100.438 133.369 102.235 131.426C104.032 129.473 106.468 128.496 109.545 128.496C111.224 128.496 112.748 128.828 114.115 129.492C115.492 130.156 116.595 131.094 117.425 132.305C118.255 133.516 118.724 134.897 118.832 136.45H114.525C114.32 135.151 113.758 134.111 112.84 133.33C111.932 132.549 110.834 132.158 109.545 132.158C107.875 132.158 106.542 132.812 105.546 134.121C104.549 135.43 104.051 137.192 104.051 139.409C104.051 141.665 104.545 143.447 105.531 144.756C106.517 146.055 107.86 146.704 109.559 146.704C110.868 146.704 111.966 146.343 112.855 145.62C113.744 144.897 114.305 143.911 114.54 142.661H118.846C118.602 145.015 117.64 146.89 115.961 148.286C114.281 149.673 112.142 150.366 109.545 150.366ZM135.296 150L133.685 144.873H126.258L124.646 150H120.105L127.444 128.862H132.645L139.998 150H135.296ZM129.92 132.905L127.21 141.562H132.732L130.022 132.905H129.92ZM156.433 146.338V150H142.766V128.862H147.19V146.338H156.433ZM175.548 150.366C172.462 150.366 170.021 149.395 168.224 147.451C166.437 145.498 165.543 142.822 165.543 139.424C165.543 136.035 166.442 133.369 168.238 131.426C170.035 129.473 172.472 128.496 175.548 128.496C177.228 128.496 178.751 128.828 180.118 129.492C181.495 130.156 182.599 131.094 183.429 132.305C184.259 133.516 184.728 134.897 184.835 136.45H180.529C180.323 135.151 179.762 134.111 178.844 133.33C177.936 132.549 176.837 132.158 175.548 132.158C173.878 132.158 172.545 132.812 171.549 134.121C170.553 135.43 170.055 137.192 170.055 139.409C170.055 141.665 170.548 143.447 171.534 144.756C172.521 146.055 173.863 146.704 175.563 146.704C176.871 146.704 177.97 146.343 178.859 145.62C179.747 144.897 180.309 143.911 180.543 142.661H184.85C184.606 145.015 183.644 146.89 181.964 148.286C180.284 149.673 178.146 150.366 175.548 150.366ZM201.299 150L199.688 144.873H192.261L190.65 150H186.109L193.448 128.862H198.648L206.002 150H201.299ZM195.923 132.905L193.213 141.562H198.736L196.026 132.905H195.923ZM213.193 132.319V139.058H217.002C218.115 139.058 218.979 138.76 219.595 138.164C220.22 137.568 220.532 136.743 220.532 135.688C220.532 134.663 220.21 133.848 219.565 133.242C218.921 132.627 218.052 132.319 216.958 132.319H213.193ZM213.193 142.266V150H208.77V128.862H217.427C219.839 128.862 221.714 129.463 223.052 130.664C224.399 131.855 225.073 133.501 225.073 135.601C225.073 136.978 224.731 138.208 224.048 139.292C223.374 140.366 222.437 141.138 221.235 141.606L225.688 150H220.679L216.738 142.266H213.193ZM242.592 146.338V150H228.588V128.862H242.592V132.51H233.012V137.607H242.05V141.006H233.012V146.338H242.592ZM260.389 146.338V150H246.386V128.862H260.389V132.51H250.809V137.607H259.847V141.006H250.809V146.338H260.389ZM268.607 132.319V139.058H272.415C273.529 139.058 274.393 138.76 275.008 138.164C275.633 137.568 275.946 136.743 275.946 135.688C275.946 134.663 275.623 133.848 274.979 133.242C274.334 132.627 273.465 132.319 272.371 132.319H268.607ZM268.607 142.266V150H264.183V128.862H272.84C275.252 128.862 277.127 129.463 278.465 130.664C279.813 131.855 280.487 133.501 280.487 135.601C280.487 136.978 280.145 138.208 279.461 139.292C278.787 140.366 277.85 141.138 276.649 141.606L281.102 150H276.092L272.152 142.266H268.607ZM35.2354 182H30.8115V164.51H24.7031V160.862H41.3584V164.51H35.2354V182ZM62.7738 182H58.35V173.094H48.8285V182H44.4047V160.862H48.8285V169.446H58.35V160.862H62.7738V182ZM80.7322 182L79.1209 176.873H71.6941L70.0828 182H65.5418L72.8807 160.862H78.0809L85.4344 182H80.7322ZM75.3563 164.905L72.6463 173.562H78.1688L75.4588 164.905H75.3563ZM94.8088 182H90.385V164.51H84.2766V160.862H100.932V164.51H94.8088V182ZM110.525 160.862H118.597C121.78 160.862 124.256 161.775 126.023 163.602C127.791 165.428 128.675 168.011 128.675 171.351C128.675 174.7 127.786 177.312 126.009 179.188C124.241 181.062 121.771 182 118.597 182H110.525V160.862ZM114.949 164.51V178.338H118.069C120.052 178.338 121.561 177.747 122.596 176.565C123.641 175.374 124.163 173.641 124.163 171.365C124.163 169.158 123.636 167.464 122.581 166.282C121.526 165.101 120.022 164.51 118.069 164.51H114.949ZM136.555 164.319V171.058H140.364C141.477 171.058 142.341 170.76 142.956 170.164C143.581 169.568 143.894 168.743 143.894 167.688C143.894 166.663 143.572 165.848 142.927 165.242C142.283 164.627 141.413 164.319 140.32 164.319H136.555ZM136.555 174.266V182H132.131V160.862H140.788C143.201 160.862 145.076 161.463 146.413 162.664C147.761 163.855 148.435 165.501 148.435 167.601C148.435 168.978 148.093 170.208 147.41 171.292C146.736 172.366 145.798 173.138 144.597 173.606L149.05 182H144.04L140.1 174.266H136.555ZM165.954 178.338V182H151.95V160.862H165.954V164.51H156.374V169.607H165.412V173.006H156.374V178.338H165.954ZM183.59 182L181.979 176.873H174.552L172.941 182H168.4L175.738 160.862H180.939L188.292 182H183.59ZM178.214 164.905L175.504 173.562H181.027L178.317 164.905H178.214ZM213.443 182H209.503V167.732H209.385L203.643 181.795H200.86L195.118 167.732H195.001V182H191.06V160.862H196.187L202.193 175.848H202.31L208.316 160.862H213.443V182ZM35.1035 214.366C32.0176 214.366 29.5762 213.395 27.7793 211.451C25.9922 209.498 25.0986 206.822 25.0986 203.424C25.0986 200.035 25.9971 197.369 27.7939 195.426C29.5908 193.473 32.0273 192.496 35.1035 192.496C36.7832 192.496 38.3066 192.828 39.6738 193.492C41.0508 194.156 42.1543 195.094 42.9844 196.305C43.8145 197.516 44.2832 198.897 44.3906 200.45H40.084C39.8789 199.151 39.3174 198.111 38.3994 197.33C37.4912 196.549 36.3926 196.158 35.1035 196.158C33.4336 196.158 32.1006 196.812 31.1045 198.121C30.1084 199.43 29.6104 201.192 29.6104 203.409C29.6104 205.665 30.1035 207.447 31.0898 208.756C32.0762 210.055 33.4189 210.704 35.1182 210.704C36.4268 210.704 37.5254 210.343 38.4141 209.62C39.3027 208.897 39.8643 207.911 40.0986 206.661H44.4053C44.1611 209.015 43.1992 210.89 41.5195 212.286C39.8398 213.673 37.7012 214.366 35.1035 214.366ZM49.8246 195.44C51.6605 193.478 54.1459 192.496 57.2807 192.496C60.4154 192.496 62.8959 193.478 64.7221 195.44C66.558 197.403 67.476 200.069 67.476 203.438C67.476 206.798 66.558 209.459 64.7221 211.422C62.8861 213.385 60.4057 214.366 57.2807 214.366C54.1459 214.366 51.6605 213.385 49.8246 211.422C47.9984 209.459 47.0854 206.798 47.0854 203.438C47.0854 200.069 47.9984 197.403 49.8246 195.44ZM61.4115 198.15C60.3861 196.842 59.0092 196.188 57.2807 196.188C55.5521 196.188 54.1703 196.842 53.1352 198.15C52.1098 199.459 51.5971 201.222 51.5971 203.438C51.5971 205.646 52.1098 207.403 53.1352 208.712C54.1605 210.011 55.5424 210.66 57.2807 210.66C59.0092 210.66 60.3861 210.011 61.4115 208.712C62.4369 207.403 62.9496 205.646 62.9496 203.438C62.9496 201.222 62.4369 199.459 61.4115 198.15ZM75.3563 192.862V206.09C75.3563 207.467 75.742 208.561 76.5135 209.371C77.2947 210.172 78.3885 210.572 79.7947 210.572C81.1912 210.572 82.2752 210.172 83.0467 209.371C83.8279 208.561 84.2186 207.467 84.2186 206.09V192.862H88.6424V206.529C88.6424 208.873 87.8367 210.768 86.2254 212.213C84.6238 213.648 82.4803 214.366 79.7947 214.366C77.0994 214.366 74.9461 213.648 73.3348 212.213C71.7332 210.768 70.9324 208.873 70.9324 206.529V192.862H75.3563ZM97.1965 196.319V203.058H101.005C102.118 203.058 102.983 202.76 103.598 202.164C104.223 201.568 104.535 200.743 104.535 199.688C104.535 198.663 104.213 197.848 103.569 197.242C102.924 196.627 102.055 196.319 100.961 196.319H97.1965ZM97.1965 206.266V214H92.7727V192.862H101.43C103.842 192.862 105.717 193.463 107.055 194.664C108.403 195.855 109.076 197.501 109.076 199.601C109.076 200.978 108.735 202.208 108.051 203.292C107.377 204.366 106.44 205.138 105.238 205.606L109.692 214H104.682L100.741 206.266H97.1965ZM111.8 207.979H116.063C116.161 208.839 116.615 209.537 117.425 210.074C118.246 210.602 119.247 210.865 120.428 210.865C121.6 210.865 122.552 210.616 123.285 210.118C124.027 209.61 124.398 208.966 124.398 208.185C124.398 207.501 124.125 206.949 123.578 206.529C123.031 206.109 122.118 205.758 120.838 205.475L118.085 204.874C114.208 204.044 112.269 202.076 112.269 198.971C112.269 197.037 113.021 195.475 114.525 194.283C116.039 193.092 117.982 192.496 120.355 192.496C122.796 192.496 124.745 193.077 126.2 194.239C127.655 195.392 128.402 196.93 128.441 198.854H124.296C124.227 197.965 123.832 197.267 123.109 196.759C122.396 196.241 121.483 195.982 120.37 195.982C119.276 195.982 118.392 196.222 117.718 196.7C117.054 197.179 116.722 197.809 116.722 198.59C116.722 199.234 116.991 199.757 117.528 200.157C118.075 200.558 118.959 200.899 120.179 201.183L122.743 201.725C124.862 202.174 126.405 202.877 127.372 203.834C128.338 204.781 128.822 206.061 128.822 207.672C128.822 209.723 128.05 211.354 126.507 212.564C124.964 213.766 122.879 214.366 120.253 214.366C117.704 214.366 115.672 213.8 114.159 212.667C112.655 211.524 111.869 209.962 111.8 207.979ZM146.15 210.338V214H132.146V192.862H146.15V196.51H136.57V201.607H145.608V205.006H136.57V210.338H146.15Z" fill="#DEDEDE"/>
</svg>
