<svg width="239" height="141" viewBox="0 0 239 141" fill="none" xmlns="http://www.w3.org/2000/svg">
<path d="M108.592 30.507C168.488 62.8635 237.443 51.6114 262.607 5.37464C287.771 -40.8621 259.615 -104.574 199.719 -136.931C139.823 -169.287 70.868 -158.035 45.7038 -111.799C20.5396 -65.5619 48.6955 -1.84951 108.592 30.507Z" fill="url(#paint0_linear_3656_5291)" fill-opacity="0.4"/>
<path d="M204.441 82.3117C264.337 114.668 333.292 103.416 358.457 57.1793C383.621 10.9426 355.465 -52.7698 295.569 -85.1263C235.673 -117.483 166.718 -106.231 141.553 -59.9939C116.389 -13.7572 144.545 49.9552 204.441 82.3117Z" fill="url(#paint1_linear_3656_5291)" fill-opacity="0.4"/>
<path d="M161.219 47.7648C221.115 80.1213 290.07 68.8692 315.234 22.6325C340.398 -23.6043 312.242 -87.3166 252.346 -119.673C192.45 -152.03 123.495 -140.778 98.3308 -94.5408C73.1666 -48.3041 101.322 15.4083 161.219 47.7648Z" fill="url(#paint2_linear_3656_5291)" fill-opacity="0.4"/>
<defs>
<linearGradient id="paint0_linear_3656_5291" x1="188.841" y1="-3.05771" x2="160.905" y2="48.6561" gradientUnits="userSpaceOnUse">
<stop stop-color="#9BD4F3" stop-opacity="0"/>
<stop offset="1" stop-color="white" stop-opacity="0.76"/>
</linearGradient>
<linearGradient id="paint1_linear_3656_5291" x1="188.892" y1="-3.00455" x2="160.956" y2="48.7093" gradientUnits="userSpaceOnUse">
<stop stop-color="#9BD4F3" stop-opacity="0"/>
<stop offset="1" stop-color="white" stop-opacity="0.5"/>
</linearGradient>
<linearGradient id="paint2_linear_3656_5291" x1="188.861" y1="-3.02471" x2="160.924" y2="48.6891" gradientUnits="userSpaceOnUse">
<stop stop-color="#9BD4F3" stop-opacity="0"/>
<stop offset="1" stop-color="white" stop-opacity="0.5"/>
</linearGradient>
</defs>
</svg>
