<svg width="279" height="134" viewBox="0 0 279 134" fill="none" xmlns="http://www.w3.org/2000/svg">
<path d="M291.185 112.17L279 134L257.17 121.815L291.185 112.17Z" fill="white" fill-opacity="0.2"/>
<path d="M281.54 78.1556L269.355 99.9854L247.526 87.8008L281.54 78.1556Z" fill="white" fill-opacity="0.2"/>
<path d="M305.909 34.4965L293.725 56.3262L271.895 44.1416L305.909 34.4965Z" fill="white" fill-opacity="0.2"/>
<path d="M247.524 87.8011L235.34 109.631L213.51 97.4463L247.524 87.8011Z" fill="white" fill-opacity="0.2"/>
<path d="M269.354 99.9857L257.17 121.815L235.34 109.631L269.354 99.9857Z" fill="white" fill-opacity="0.2"/>
<path d="M237.88 53.7865L225.695 75.6162L203.866 63.4316L237.88 53.7865Z" fill="white" fill-opacity="0.2"/>
<path d="M259.709 65.9717L284.078 22.3123L216.05 41.6026L259.709 65.9717Z" fill="white" fill-opacity="0.2"/>
<path d="M203.866 63.432L191.682 85.2617L169.852 73.0772L203.866 63.432Z" fill="white" fill-opacity="0.2"/>
<path d="M216.05 41.6019L203.865 63.4316L182.036 51.2471L216.05 41.6019Z" fill="white" fill-opacity="0.2"/>
<path d="M240.419 -2.05725L228.234 19.7725L206.405 7.5879L240.419 -2.05725Z" fill="white" fill-opacity="0.2"/>
<path d="M262.249 10.1273L250.064 31.957L228.235 19.7725L262.249 10.1273Z" fill="white" fill-opacity="0.2"/>
<path d="M206.405 7.58826L194.221 29.418L172.391 17.2334L206.405 7.58826Z" fill="white" fill-opacity="0.2"/>
<path d="M148.021 60.8926L172.391 17.2332L104.362 36.5235L148.021 60.8926Z" fill="white" fill-opacity="0.2"/>
<path d="M162.745 -16.7809L150.561 5.04883L128.731 -7.13574L162.745 -16.7809Z" fill="white" fill-opacity="0.2"/>
<path d="M116.546 14.6937L104.361 36.5234L82.5316 24.3389L116.546 14.6937Z" fill="white" fill-opacity="0.2"/>
<path d="M184.575 -4.59631L172.391 17.2334L150.561 5.04883L184.575 -4.59631Z" fill="white" fill-opacity="0.2"/>
<path d="M116.547 14.6934L153.101 -50.7958L51.0577 -21.8603L116.547 14.6934Z" fill="white" fill-opacity="0.2"/>
<path d="M318.094 12.667L354.647 -52.8221L252.605 -23.8867L318.094 12.667Z" fill="white" fill-opacity="0.2"/>
</svg>
