<svg width="25" height="24" viewBox="0 0 25 24" fill="none" xmlns="http://www.w3.org/2000/svg">
<path d="M9.91356 8.29517V6.87866C9.91356 5.888 9.10759 5.08203 8.11693 5.08203C7.12628 5.08203 6.32031 5.888 6.32031 6.87866V8.29517C6.32031 9.28583 7.12628 10.0918 8.11693 10.0918C9.10759 10.0918 9.91356 9.28583 9.91356 8.29517Z" fill="#55D94F"/>
<path d="M4.5625 13.1484V15.0895H11.6731V13.1484C11.6731 12.2438 10.9371 11.5078 10.0324 11.5078H6.20313C5.29848 11.5078 4.5625 12.2438 4.5625 13.1484Z" fill="#55D94F"/>
<path d="M0.375 17.3742C0.375 18.1509 1.00458 18.7805 1.78125 18.7805H22.9688C23.7454 18.7805 24.375 18.1509 24.375 17.3742V16.4961H0.375V17.3742Z" fill="#55D94F"/>
<path d="M23.6727 0.607422H17.2539C16.8662 0.607422 16.5508 0.922844 16.5508 1.31055V5.65919C16.5508 6.04689 16.8662 6.36231 17.2539 6.36231H23.6727C24.0604 6.36231 24.3758 6.04689 24.3758 5.65919V1.31055C24.3758 0.922844 24.0604 0.607422 23.6727 0.607422Z" fill="#55D94F"/>
<path d="M17.2531 7.76861C16.09 7.76861 15.1437 6.82234 15.1437 5.65923V1.31055C15.1437 1.06403 15.1866 0.8275 15.2647 0.607422H1.78125C1.00458 0.607422 0.375 1.237 0.375 2.01367V15.091H3.15506V13.15C3.15506 11.7015 4.17145 10.4866 5.52825 10.1791C5.14228 9.65003 4.91372 8.99922 4.91372 8.29567V6.92776C4.91372 5.17014 6.30942 3.70347 8.06686 3.67666C9.85561 3.64937 11.3195 5.09655 11.3195 6.87916V8.29567C11.3195 8.99917 11.0909 9.65003 10.7049 10.1791C12.0618 10.4867 13.0781 11.7015 13.0781 13.15V15.091H24.375V7.64767C24.1549 7.72572 23.9184 7.76861 23.6719 7.76861H17.2531Z" fill="#55D94F"/>
<path d="M14.8658 20.1875H9.88659V21.9868H5.35547V23.3931H19.397V21.9868H14.8658V20.1875Z" fill="#55D94F"/>
</svg>
