<svg width="247" height="137" viewBox="0 0 247 137" fill="none" xmlns="http://www.w3.org/2000/svg">
<g clip-path="url(#clip0_3688_38382)">
<path d="M98.0407 -29.9661L105.812 -17.5852L98.9752 -4.67384L84.3669 -4.1435L76.6041 -16.5199L83.4411 -29.4312L98.0407 -29.9661ZM84.6384 -27.5298L78.8498 -16.5982L85.4198 -6.13184L97.7824 -6.5839L103.566 -17.5069L96.9878 -27.9778L84.6384 -27.5298ZM83.3779 -31.3934L97.969 -31.9328L101.387 -38.3885L99.6659 -39.3001L96.7716 -33.8343L84.4308 -33.3817L83.3825 -31.402L83.3779 -31.3934ZM74.9458 -15.4694L82.6999 -3.09752L79.0536 3.78852L77.332 2.87693L80.4542 -3.01924L73.8929 -13.481L74.9412 -15.4608L74.9458 -15.4694ZM103.126 -37.4678L99.7077 -31.0121L107.47 -18.6357L107.479 -18.6311L108.532 -20.6195L108.523 -20.624L101.953 -31.0904L104.848 -36.5562L103.126 -37.4678ZM80.7923 4.70922L84.4386 -2.17682L99.0383 -2.71172L99.0469 -2.70717L97.994 -0.71882L97.9854 -0.723378L85.636 -0.275366L82.5138 5.62081L80.7923 4.70922Z" fill="white" fill-opacity="0.1"/>
</g>
<g clip-path="url(#clip1_3688_38382)">
<path d="M146.249 -4.44271L154.02 7.93827L147.183 20.8496L132.575 21.3799L124.812 9.00352L131.649 -3.90781L146.249 -4.44271ZM132.846 -2.00635L127.058 8.92524L133.628 19.3916L145.99 18.9395L151.774 8.01655L145.196 -2.45437L132.846 -2.00635ZM131.586 -5.86992L146.177 -6.40938L149.595 -12.865L147.874 -13.7766L144.98 -8.31084L132.639 -7.85827L131.591 -5.87853L131.586 -5.86992ZM123.154 10.054L130.908 22.4259L127.262 29.312L125.54 28.4004L128.662 22.5042L122.101 12.0424L123.149 10.0627L123.154 10.054ZM151.334 -11.9443L147.916 -5.48868L155.678 6.88774L155.687 6.8923L156.74 4.90396L156.731 4.8994L150.161 -5.56696L153.056 -11.0328L151.334 -11.9443ZM129 30.2327L132.647 23.3466L147.246 22.8117L147.255 22.8163L146.202 24.8046L146.193 24.8001L133.844 25.2481L130.722 31.1442L129 30.2327Z" fill="white" fill-opacity="0.1"/>
</g>
<g clip-path="url(#clip2_3688_38382)">
<path d="M194.449 21.0807L202.22 33.4617L195.383 46.373L180.775 46.9034L173.012 34.527L179.849 21.6156L194.449 21.0807ZM181.047 23.5171L175.258 34.4487L181.828 44.915L194.191 44.463L199.975 33.54L193.396 23.0691L181.047 23.5171ZM179.786 19.6535L194.377 19.1141L197.796 12.6584L196.074 11.7468L193.18 17.2126L180.839 17.6652L179.791 19.6449L179.786 19.6535ZM171.354 35.5775L179.108 47.9494L175.462 54.8354L173.74 53.9238L176.862 48.0276L170.301 37.5658L171.349 35.5861L171.354 35.5775ZM199.534 13.5791L196.116 20.0348L203.879 32.4112L203.887 32.4157L204.94 30.4274L204.932 30.4228L198.362 19.9565L201.256 14.4907L199.534 13.5791ZM177.2 55.7561L180.847 48.8701L195.446 48.3352L195.455 48.3397L194.402 50.3281L194.394 50.3235L182.044 50.7715L178.922 56.6677L177.2 55.7561Z" fill="white" fill-opacity="0.1"/>
</g>
<g clip-path="url(#clip3_3688_38382)">
<path d="M242.652 46.6061L250.423 58.9871L243.587 71.8984L228.978 72.4288L221.215 60.0523L228.052 47.141L242.652 46.6061ZM229.25 49.0425L223.461 59.9741L230.031 70.4404L242.394 69.9884L248.178 59.0654L241.599 48.5945L229.25 49.0425ZM227.989 45.1789L242.58 44.6394L245.999 38.1838L244.277 37.2722L241.383 42.738L229.042 43.1906L227.994 45.1703L227.989 45.1789ZM219.557 61.1029L227.311 73.4747L223.665 80.3608L221.943 79.4492L225.066 73.553L218.504 63.0912L219.553 61.1115L219.557 61.1029ZM247.737 39.1045L244.319 45.5601L252.082 57.9366L252.09 57.9411L253.143 55.9528L253.135 55.9482L246.565 45.4819L249.459 40.0161L247.737 39.1045ZM225.404 81.2815L229.05 74.3954L243.65 73.8605L243.658 73.8651L242.605 75.8534L242.597 75.8489L230.247 76.2969L227.125 82.1931L225.404 81.2815Z" fill="white" fill-opacity="0.1"/>
</g>
<g clip-path="url(#clip4_3688_38382)">
<path d="M122.147 -17.2044L129.919 -4.82345L123.082 8.08788L108.473 8.61822L100.711 -3.7582L107.547 -16.6695L122.147 -17.2044ZM108.745 -14.7681L102.956 -3.83648L109.526 6.62988L121.889 6.17782L127.673 -4.74517L121.094 -15.2161L108.745 -14.7681ZM107.484 -18.6316L122.075 -19.1711L125.494 -25.6268L123.772 -26.5384L120.878 -21.0726L108.537 -20.62L107.489 -18.6402L107.484 -18.6316ZM99.0522 -2.70767L106.806 9.66419L103.16 16.5502L101.438 15.6386L104.561 9.74247L97.9993 -0.719325L99.0476 -2.69907L99.0522 -2.70767ZM127.233 -24.7061L123.814 -18.2504L131.577 -5.87398L131.586 -5.86942L132.638 -7.85776L132.63 -7.86232L126.06 -18.3287L128.954 -23.7945L127.233 -24.7061ZM104.899 17.4709L108.545 10.5849L123.145 10.05L123.153 10.0546L122.1 12.0429L122.092 12.0383L109.742 12.4864L106.62 18.3825L104.899 17.4709Z" fill="white" fill-opacity="0.1"/>
</g>
<g clip-path="url(#clip5_3688_38382)">
<path d="M170.348 8.31901L178.12 20.7L171.283 33.6113L156.675 34.1417L148.912 21.7652L155.749 8.85391L170.348 8.31901ZM156.946 10.7554L151.157 21.687L157.727 32.1533L170.09 31.7013L175.874 20.7783L169.295 10.3074L156.946 10.7554ZM155.686 6.8918L170.277 6.35233L173.695 -0.103329L171.974 -1.01492L169.079 4.45088L156.738 4.90345L155.69 6.88319L155.686 6.8918ZM147.253 22.8158L155.008 35.1876L151.361 42.0737L149.64 41.1621L152.762 35.2659L146.2 24.8041L147.249 22.8244L147.253 22.8158ZM175.434 0.817374L172.015 7.27304L179.778 19.6495L179.787 19.654L180.84 17.6657L180.831 17.6611L174.261 7.19476L177.155 1.72896L175.434 0.817374ZM153.1 42.9944L156.746 36.1083L171.346 35.5734L171.355 35.578L170.302 37.5663L170.293 37.5618L157.944 38.0098L154.821 43.906L153.1 42.9944Z" fill="white" fill-opacity="0.1"/>
</g>
<g clip-path="url(#clip6_3688_38382)">
<path d="M218.55 33.8444L226.321 46.2254L219.484 59.1367L204.876 59.6671L197.113 47.2906L203.95 34.3793L218.55 33.8444ZM205.147 36.2808L199.359 47.2123L205.929 57.6787L218.291 57.2266L224.075 46.3037L217.497 35.8327L205.147 36.2808ZM203.887 32.4172L218.478 31.8777L221.896 25.4221L220.175 24.5105L217.28 29.9763L204.94 30.4288L203.891 32.4086L203.887 32.4172ZM195.455 48.3412L203.209 60.713L199.562 67.5991L197.841 66.6875L200.963 60.7913L194.402 50.3295L195.45 48.3498L195.455 48.3412ZM223.635 26.3428L220.217 32.7984L227.979 45.1749L227.988 45.1794L229.041 43.1911L229.032 43.1865L222.462 32.7201L225.356 27.2544L223.635 26.3428ZM201.301 68.5198L204.947 61.6337L219.547 61.0988L219.556 61.1034L218.503 63.0917L218.494 63.0872L206.145 63.5352L203.023 69.4314L201.301 68.5198Z" fill="white" fill-opacity="0.1"/>
</g>
<g clip-path="url(#clip7_3688_38382)">
<path d="M266.749 59.3678L274.52 71.7488L267.683 84.6601L253.075 85.1905L245.312 72.8141L252.149 59.9027L266.749 59.3678ZM253.346 61.8042L247.558 72.7358L254.128 83.2021L266.49 82.7501L272.274 71.8271L265.696 61.3562L253.346 61.8042ZM252.086 57.9406L266.677 57.4012L270.095 50.9455L268.374 50.0339L265.48 55.4997L253.139 55.9523L252.091 57.932L252.086 57.9406ZM243.654 73.8646L251.408 86.2365L247.762 93.1225L246.04 92.2109L249.162 86.3147L242.601 75.8529L243.649 73.8732L243.654 73.8646ZM271.834 51.8662L268.416 58.3219L276.178 70.6983L276.187 70.7028L277.24 68.7145L277.231 68.7099L270.661 58.2436L273.556 52.7778L271.834 51.8662ZM249.5 94.0432L253.147 87.1572L267.746 86.6223L267.755 86.6268L266.702 88.6152L266.693 88.6106L254.344 89.0586L251.222 94.9548L249.5 94.0432Z" fill="white" fill-opacity="0.1"/>
</g>
<g clip-path="url(#clip8_3688_38382)">
<path d="M27.5104 -13.3158L35.2818 -0.934777L28.4449 11.9766L13.8366 12.5069L6.07387 0.130473L12.9108 -12.7809L27.5104 -13.3158ZM14.1081 -10.8794L8.31955 0.0521919L14.8895 10.5186L27.2521 10.0665L33.0361 -0.856495L26.4576 -11.3274L14.1081 -10.8794ZM12.8477 -14.743L27.4387 -15.2824L30.8572 -21.7381L29.1357 -22.6497L26.2414 -17.1839L13.9005 -16.7313L12.8522 -14.7516L12.8477 -14.743ZM4.41548 1.181L12.1696 13.5529L8.52328 20.4389L6.80177 19.5273L9.92396 13.6311L3.3626 3.16935L4.41092 1.18961L4.41548 1.181ZM32.5959 -20.8174L29.1774 -14.3617L36.9402 -1.9853L36.9488 -1.98075L38.0017 -3.96909L37.9931 -3.97365L31.4231 -14.44L34.3174 -19.9058L32.5959 -20.8174ZM10.262 21.3596L13.9084 14.4736L28.508 13.9387L28.5166 13.9432L27.4637 15.9316L27.4551 15.927L15.1057 16.375L11.9835 22.2712L10.262 21.3596Z" fill="white" fill-opacity="0.1"/>
</g>
<g clip-path="url(#clip9_3688_38382)">
<path d="M75.7097 12.2096L83.481 24.5906L76.6441 37.5019L62.0359 38.0323L54.2731 25.6559L61.11 12.7445L75.7097 12.2096ZM62.3073 14.646L56.5188 25.5776L63.0887 36.0439L75.4513 35.5919L81.2354 24.6689L74.6568 14.198L62.3073 14.646ZM61.0469 10.7824L75.6379 10.243L79.0564 3.7873L77.3349 2.87571L74.4406 8.3415L62.0998 8.79408L61.0514 10.7738L61.0469 10.7824ZM52.6147 26.7064L60.3688 39.0783L56.7225 45.9643L55.001 45.0527L58.1232 39.1565L51.5618 28.6947L52.6101 26.715L52.6147 26.7064ZM80.7951 4.708L77.3767 11.1637L85.1394 23.5401L85.148 23.5446L86.2009 21.5563L86.1923 21.5517L79.6223 11.0854L82.5166 5.61959L80.7951 4.708ZM58.4612 46.885L62.1076 39.999L76.7072 39.4641L76.7158 39.4686L75.663 41.457L75.6544 41.4524L63.3049 41.9004L60.1827 47.7966L58.4612 46.885Z" fill="white" fill-opacity="0.1"/>
</g>
<g clip-path="url(#clip10_3688_38382)">
<path d="M123.912 37.735L131.683 50.116L124.846 63.0273L110.238 63.5577L102.475 51.1813L109.312 38.2699L123.912 37.735ZM110.509 40.1714L104.721 51.103L111.291 61.5693L123.653 61.1173L129.438 50.1943L122.859 39.7234L110.509 40.1714ZM109.249 36.3078L123.84 35.7683L127.259 29.3127L125.537 28.4011L122.643 33.8669L110.302 34.3195L109.254 36.2992L109.249 36.3078ZM100.817 52.2318L108.571 64.6036L104.925 71.4897L103.203 70.5781L106.325 64.6819L99.764 54.2201L100.812 52.2404L100.817 52.2318ZM128.997 30.2334L125.579 36.6891L133.342 49.0655L133.35 49.07L134.403 47.0817L134.394 47.0771L127.824 36.6108L130.719 31.145L128.997 30.2334ZM106.663 72.4104L110.31 65.5244L124.909 64.9894L124.918 64.994L123.865 66.9824L123.856 66.9778L111.507 67.4258L108.385 73.322L106.663 72.4104Z" fill="white" fill-opacity="0.1"/>
</g>
<g clip-path="url(#clip11_3688_38382)">
<path d="M216.782 -21.0951L224.553 -8.71407L217.716 4.19725L203.108 4.7276L195.345 -7.64882L202.182 -20.5602L216.782 -21.0951ZM203.38 -18.6587L197.591 -7.7271L204.161 2.73926L216.524 2.28719L222.308 -8.63579L215.729 -19.1067L203.38 -18.6587ZM202.119 -22.5223L216.71 -23.0617L220.129 -29.5174L218.407 -30.429L215.513 -24.9632L203.172 -24.5106L202.124 -22.5309L202.119 -22.5223ZM193.687 -6.5983L201.441 5.77357L197.795 12.6596L196.073 11.748L199.195 5.85185L192.634 -4.60995L193.682 -6.58969L193.687 -6.5983ZM221.867 -28.5967L218.449 -22.141L226.212 -9.7646L226.22 -9.76004L227.273 -11.7484L227.265 -11.7529L220.695 -22.2193L223.589 -27.6851L221.867 -28.5967ZM199.533 13.5803L203.18 6.69427L217.78 6.15937L217.788 6.16393L216.735 8.15227L216.727 8.14772L204.377 8.59573L201.255 14.4919L199.533 13.5803Z" fill="white" fill-opacity="0.1"/>
</g>
<g clip-path="url(#clip12_3688_38382)">
<path d="M172.114 63.2585L179.885 75.6394L173.048 88.5508L158.44 89.0811L150.677 76.7047L157.514 63.7934L172.114 63.2585ZM158.712 65.6948L152.923 76.6264L159.493 87.0928L171.856 86.6407L177.64 75.7177L171.061 65.2468L158.712 65.6948ZM157.451 61.8312L172.042 61.2918L175.461 54.8361L173.739 53.9245L170.845 59.3903L158.504 59.8429L157.456 61.8226L157.451 61.8312ZM149.019 77.7552L156.773 90.1271L153.127 97.0131L151.405 96.1015L154.527 90.2054L147.966 79.7436L149.014 77.7638L149.019 77.7552ZM177.199 55.7568L173.781 62.2125L181.544 74.5889L181.552 74.5935L182.605 72.6051L182.597 72.6006L176.027 62.1342L178.921 56.6684L177.199 55.7568ZM154.866 97.9338L158.512 91.0478L173.112 90.5129L173.12 90.5174L172.067 92.5058L172.059 92.5012L159.709 92.9492L156.587 98.8454L154.866 97.9338Z" fill="white" fill-opacity="0.1"/>
</g>
<g clip-path="url(#clip13_3688_38382)">
<path d="M264.987 4.42838L272.758 16.8094L265.921 29.7207L251.313 30.251L243.55 17.8746L250.387 4.96329L264.987 4.42838ZM251.585 6.86474L245.796 17.7963L252.366 28.2627L264.729 27.8106L270.513 16.8876L263.934 6.41673L251.585 6.86474ZM250.324 3.00117L264.915 2.46171L268.334 -3.99395L266.612 -4.90554L263.718 0.560254L251.377 1.01283L250.329 2.99256L250.324 3.00117ZM241.892 18.9251L249.646 31.297L246 38.183L244.278 37.2715L247.401 31.3753L240.839 20.9135L241.887 18.9337L241.892 18.9251ZM270.072 -3.07325L266.654 3.38241L274.417 15.7588L274.425 15.7634L275.478 13.7751L275.47 13.7705L268.9 3.30413L271.794 -2.16166L270.072 -3.07325ZM247.739 39.1038L251.385 32.2177L265.985 31.6828L265.993 31.6874L264.94 33.6757L264.932 33.6712L252.582 34.1192L249.46 40.0153L247.739 39.1038Z" fill="white" fill-opacity="0.1"/>
</g>
<g clip-path="url(#clip14_3688_38382)">
<path d="M220.317 88.7839L228.088 101.165L221.252 114.076L206.643 114.607L198.881 102.23L205.717 89.3188L220.317 88.7839ZM206.915 91.2202L201.126 102.152L207.696 112.618L220.059 112.166L225.843 101.243L219.264 90.7722L206.915 91.2202ZM205.654 87.3566L220.245 86.8172L223.664 80.3615L221.942 79.4499L219.048 84.9157L206.707 85.3683L205.659 87.348L205.654 87.3566ZM197.222 103.281L204.976 115.652L201.33 122.539L199.608 121.627L202.731 115.731L196.169 105.269L197.218 103.289L197.222 103.281ZM225.403 81.2822L221.984 87.7379L229.747 100.114L229.755 100.119L230.808 98.1305L230.8 98.126L224.23 87.6596L227.124 82.1938L225.403 81.2822ZM203.069 123.459L206.715 116.573L221.315 116.038L221.323 116.043L220.27 118.031L220.262 118.027L207.912 118.475L204.79 124.371L203.069 123.459Z" fill="white" fill-opacity="0.1"/>
</g>
<g clip-path="url(#clip15_3688_38382)">
<path d="M51.6101 -0.552086L59.3814 11.8289L52.5445 24.7402L37.9362 25.2706L30.1735 12.8941L37.0104 -0.0171829L51.6101 -0.552086ZM38.2077 1.88427L32.4192 12.8159L38.9891 23.2822L51.3517 22.8302L57.1357 11.9072L50.5572 1.43626L38.2077 1.88427ZM36.9473 -1.9793L51.5383 -2.51876L54.9568 -8.97442L53.2353 -9.88601L50.341 -4.42022L38.0002 -3.96764L36.9518 -1.98791L36.9473 -1.9793ZM28.5151 13.9447L36.2692 26.3165L32.6229 33.2026L30.9014 32.291L34.0236 26.3948L27.4622 15.933L28.5105 13.9533L28.5151 13.9447ZM56.6955 -8.05372L53.2771 -1.59806L61.0398 10.7784L61.0484 10.7829L62.1013 8.79458L62.0927 8.79002L55.5227 -1.67634L58.417 -7.14213L56.6955 -8.05372ZM34.3616 34.1233L38.008 27.2372L52.6076 26.7023L52.6162 26.7069L51.5633 28.6952L51.5547 28.6907L39.2053 29.1387L36.0831 35.0349L34.3616 34.1233Z" fill="white" fill-opacity="0.1"/>
</g>
<g clip-path="url(#clip16_3688_38382)">
<path d="M99.8102 24.9714L107.582 37.3523L100.745 50.2637L86.1364 50.794L78.3737 38.4176L85.2106 25.5063L99.8102 24.9714ZM86.4079 27.4077L80.6194 38.3393L87.1893 48.8057L99.5519 48.3536L105.336 37.4306L98.7574 26.9597L86.4079 27.4077ZM85.1475 23.5441L99.7385 23.0047L103.157 16.549L101.435 15.6374L98.5412 21.1032L86.2004 21.5558L85.152 23.5355L85.1475 23.5441ZM76.7153 39.4681L84.4694 51.84L80.8231 58.726L79.1016 57.8144L82.2238 51.9183L75.6624 41.4565L76.7107 39.4767L76.7153 39.4681ZM104.896 17.4697L101.477 23.9254L109.24 36.3018L109.249 36.3064L110.301 34.318L110.293 34.3135L103.723 23.8471L106.617 18.3813L104.896 17.4697ZM82.5618 59.6467L86.2082 52.7607L100.808 52.2258L100.816 52.2303L99.7635 54.2187L99.7549 54.2141L87.4055 54.6621L84.2833 60.5583L82.5618 59.6467Z" fill="white" fill-opacity="0.1"/>
</g>
<g clip-path="url(#clip17_3688_38382)">
<path d="M192.678 -33.8568L200.45 -21.4758L193.613 -8.56446L179.005 -8.03412L171.242 -20.4105L178.079 -33.3219L192.678 -33.8568ZM179.276 -31.4204L173.488 -20.4888L180.057 -10.0225L192.42 -10.4745L198.204 -21.3975L191.626 -31.8684L179.276 -31.4204ZM178.016 -35.284L192.607 -35.8234L196.025 -42.2791L194.304 -43.1907L191.409 -37.7249L179.069 -37.2723L178.02 -35.2926L178.016 -35.284ZM169.583 -19.36L177.338 -6.98815L173.691 -0.102109L171.97 -1.0137L175.092 -6.90987L168.531 -17.3717L169.579 -19.3514L169.583 -19.36ZM197.764 -41.3584L194.345 -34.9027L202.108 -22.5263L202.117 -22.5218L203.17 -24.5101L203.161 -24.5147L196.591 -34.981L199.485 -40.4468L197.764 -41.3584ZM175.43 0.818594L179.076 -6.06745L193.676 -6.60235L193.685 -6.59779L192.632 -4.60945L192.623 -4.614L180.274 -4.16599L177.151 1.73018L175.43 0.818594Z" fill="white" fill-opacity="0.1"/>
</g>
<g clip-path="url(#clip18_3688_38382)">
<path d="M148.017 50.4967L155.789 62.8777L148.952 75.7891L134.343 76.3194L126.581 63.943L133.418 51.0316L148.017 50.4967ZM134.615 52.9331L128.826 63.8647L135.396 74.3311L147.759 73.879L153.543 62.956L146.964 52.4851L134.615 52.9331ZM133.355 49.0695L147.946 48.5301L151.364 42.0744L149.642 41.1628L146.748 46.6286L134.407 47.0812L133.359 49.0609L133.355 49.0695ZM124.922 64.9935L132.676 77.3654L129.03 84.2514L127.309 83.3398L130.431 77.4436L123.869 66.9818L124.918 65.0021L124.922 64.9935ZM153.103 42.9951L149.684 49.4508L157.447 61.8272L157.456 61.8318L158.509 59.8434L158.5 59.8389L151.93 49.3725L154.824 43.9067L153.103 42.9951ZM130.769 85.1721L134.415 78.2861L149.015 77.7512L149.023 77.7557L147.971 79.7441L147.962 79.7395L135.613 80.1875L132.49 86.0837L130.769 85.1721Z" fill="white" fill-opacity="0.1"/>
</g>
<g clip-path="url(#clip19_3688_38382)">
<path d="M240.884 -8.33334L248.656 4.04765L241.819 16.959L227.211 17.4893L219.448 5.11289L226.285 -7.79843L240.884 -8.33334ZM227.482 -5.89698L221.694 5.03461L228.264 15.501L240.626 15.0489L246.41 4.12593L239.832 -6.34499L227.482 -5.89698ZM226.222 -9.76055L240.813 -10.3L244.231 -16.7557L242.51 -17.6673L239.615 -12.2015L227.275 -11.7489L226.226 -9.76916L226.222 -9.76055ZM217.79 6.16342L225.544 18.5353L221.897 25.4213L220.176 24.5097L223.298 18.6136L216.737 8.15177L217.785 6.17203L217.79 6.16342ZM245.97 -15.835L242.551 -9.37931L250.314 2.99712L250.323 3.00168L251.376 1.01333L251.367 1.00877L244.797 -9.45759L247.691 -14.9234L245.97 -15.835ZM223.636 26.342L227.282 19.456L241.882 18.9211L241.891 18.9256L240.838 20.914L240.829 20.9094L228.48 21.3574L225.358 27.2536L223.636 26.342Z" fill="white" fill-opacity="0.1"/>
</g>
<g clip-path="url(#clip20_3688_38382)">
<path d="M196.216 76.0202L203.988 88.4012L197.151 101.312L182.543 101.843L174.78 89.4664L181.617 76.5551L196.216 76.0202ZM182.814 78.4565L177.026 89.3881L183.596 99.8545L195.958 99.4024L201.742 88.4794L195.164 78.0085L182.814 78.4565ZM181.554 74.593L196.145 74.0535L199.563 67.5978L197.842 66.6863L194.947 72.1521L182.607 72.6046L181.558 74.5844L181.554 74.593ZM173.122 90.5169L180.876 102.889L177.229 109.775L175.508 108.863L178.63 102.967L172.069 92.5053L173.117 90.5255L173.122 90.5169ZM201.302 68.5185L197.883 74.9742L205.646 87.3506L205.655 87.3552L206.708 85.3668L206.699 85.3623L200.129 74.8959L203.023 69.4301L201.302 68.5185ZM178.968 110.696L182.614 103.81L197.214 103.275L197.223 103.279L196.17 105.268L196.161 105.263L183.812 105.711L180.69 111.607L178.968 110.696Z" fill="white" fill-opacity="0.1"/>
</g>
<g clip-path="url(#clip21_3688_38382)">
<path d="M244.419 101.546L252.19 113.927L245.353 126.838L230.745 127.368L222.982 114.992L229.819 102.08L244.419 101.546ZM231.016 103.982L225.228 114.914L231.798 125.38L244.16 124.928L249.944 114.005L243.366 103.534L231.016 103.982ZM229.756 100.118L244.347 99.5789L247.765 93.1232L246.044 92.2116L243.15 97.6774L230.809 98.13L229.76 100.11L229.756 100.118ZM221.324 116.042L229.078 128.414L225.431 135.3L223.71 134.389L226.832 128.492L220.271 118.031L221.319 116.051L221.324 116.042ZM249.504 94.0439L246.086 100.5L253.848 112.876L253.857 112.881L254.91 110.892L254.901 110.888L248.331 100.421L251.226 94.9555L249.504 94.0439ZM227.17 136.221L230.817 129.335L245.416 128.8L245.425 128.805L244.372 130.793L244.363 130.788L232.014 131.236L228.892 137.133L227.17 136.221Z" fill="white" fill-opacity="0.1"/>
</g>
<defs>
<clipPath id="clip0_3688_38382">
<rect width="27.2716" height="47.7253" fill="white" transform="translate(90.2178 -44.3047) rotate(27.9025)"/>
</clipPath>
<clipPath id="clip1_3688_38382">
<rect width="27.2716" height="47.7253" fill="white" transform="translate(138.422 -18.7812) rotate(27.9025)"/>
</clipPath>
<clipPath id="clip2_3688_38382">
<rect width="27.2716" height="47.7253" fill="white" transform="translate(186.623 6.74219) rotate(27.9025)"/>
</clipPath>
<clipPath id="clip3_3688_38382">
<rect width="27.2716" height="47.7253" fill="white" transform="translate(234.825 32.2676) rotate(27.9025)"/>
</clipPath>
<clipPath id="clip4_3688_38382">
<rect width="27.2716" height="47.7253" fill="white" transform="translate(114.32 -31.543) rotate(27.9025)"/>
</clipPath>
<clipPath id="clip5_3688_38382">
<rect width="27.2716" height="47.7253" fill="white" transform="translate(162.521 -6.01953) rotate(27.9025)"/>
</clipPath>
<clipPath id="clip6_3688_38382">
<rect width="27.2716" height="47.7253" fill="white" transform="translate(210.725 19.5059) rotate(27.9025)"/>
</clipPath>
<clipPath id="clip7_3688_38382">
<rect width="27.2716" height="47.7253" fill="white" transform="translate(258.926 45.0293) rotate(27.9025)"/>
</clipPath>
<clipPath id="clip8_3688_38382">
<rect width="27.2716" height="40.9074" fill="white" transform="translate(19.6826 -27.6543) rotate(27.9025)"/>
</clipPath>
<clipPath id="clip9_3688_38382">
<rect width="27.2716" height="40.9074" fill="white" transform="translate(67.8848 -2.12891) rotate(27.9025)"/>
</clipPath>
<clipPath id="clip10_3688_38382">
<rect width="27.2716" height="40.9074" fill="white" transform="translate(116.087 23.3965) rotate(27.9025)"/>
</clipPath>
<clipPath id="clip11_3688_38382">
<rect width="27.2716" height="47.7253" fill="white" transform="translate(208.957 -35.4336) rotate(27.9025)"/>
</clipPath>
<clipPath id="clip12_3688_38382">
<rect width="27.2716" height="40.9074" fill="white" transform="translate(164.289 48.9199) rotate(27.9025)"/>
</clipPath>
<clipPath id="clip13_3688_38382">
<rect width="27.2716" height="47.7253" fill="white" transform="translate(257.159 -9.91016) rotate(27.9025)"/>
</clipPath>
<clipPath id="clip14_3688_38382">
<rect width="27.2716" height="40.9074" fill="white" transform="translate(212.492 74.4453) rotate(27.9025)"/>
</clipPath>
<clipPath id="clip15_3688_38382">
<rect width="27.2716" height="40.9074" fill="white" transform="translate(43.7832 -14.8906) rotate(27.9025)"/>
</clipPath>
<clipPath id="clip16_3688_38382">
<rect width="27.2716" height="40.9074" fill="white" transform="translate(91.9854 10.6328) rotate(27.9025)"/>
</clipPath>
<clipPath id="clip17_3688_38382">
<rect width="27.2716" height="47.7253" fill="white" transform="translate(184.855 -48.1953) rotate(27.9025)"/>
</clipPath>
<clipPath id="clip18_3688_38382">
<rect width="27.2716" height="40.9074" fill="white" transform="translate(140.188 36.1582) rotate(27.9025)"/>
</clipPath>
<clipPath id="clip19_3688_38382">
<rect width="27.2716" height="47.7253" fill="white" transform="translate(233.058 -22.6719) rotate(27.9025)"/>
</clipPath>
<clipPath id="clip20_3688_38382">
<rect width="27.2716" height="40.9074" fill="white" transform="translate(188.391 61.6816) rotate(27.9025)"/>
</clipPath>
<clipPath id="clip21_3688_38382">
<rect width="27.2716" height="40.9074" fill="white" transform="translate(236.593 87.207) rotate(27.9025)"/>
</clipPath>
</defs>
</svg>
