<svg width="17" height="16" viewBox="0 0 17 16" fill="none" xmlns="http://www.w3.org/2000/svg">
<circle cx="8.5026" cy="7.9987" r="6.66667" fill="#7B7B7B"/>
<path d="M8.50001 4.72072C9.56804 4.72072 9.69456 4.7248 10.1163 4.74404C10.5063 4.76183 10.7181 4.82699 10.8591 4.88177C11.0458 4.95433 11.179 5.04101 11.319 5.18097C11.459 5.32095 11.5457 5.4542 11.6182 5.64091C11.673 5.78186 11.7382 5.99365 11.756 6.38365C11.7752 6.80543 11.7793 6.93195 11.7793 7.99998C11.7793 9.06803 11.7752 9.19454 11.756 9.61632C11.7382 10.0063 11.673 10.2181 11.6182 10.3591C11.5457 10.5458 11.459 10.679 11.319 10.819C11.179 10.959 11.0458 11.0456 10.8591 11.1182C10.7181 11.173 10.5063 11.2381 10.1163 11.2559C9.69462 11.2752 9.56812 11.2793 8.50001 11.2793C7.43188 11.2793 7.30539 11.2752 6.88366 11.2559C6.49366 11.2381 6.28186 11.173 6.14091 11.1182C5.9542 11.0456 5.82096 10.959 5.68099 10.819C5.54103 10.679 5.45433 10.5458 5.38177 10.3591C5.32699 10.2181 5.26183 10.0063 5.24404 9.61632C5.2248 9.19454 5.22072 9.06803 5.22072 7.99998C5.22072 6.93195 5.2248 6.80543 5.24404 6.38365C5.26183 5.99365 5.32699 5.78186 5.38177 5.64091C5.45433 5.4542 5.54101 5.32095 5.68099 5.18099C5.82096 5.04101 5.9542 4.95433 6.14091 4.88177C6.28186 4.82699 6.49366 4.76183 6.88366 4.74404C7.30544 4.7248 7.43196 4.72072 8.50001 4.72072ZM8.50001 4C7.41367 4 7.27745 4.0046 6.85081 4.02407C6.42505 4.04349 6.13428 4.11111 5.87985 4.20999C5.61681 4.31221 5.39374 4.44898 5.17135 4.67135C4.94898 4.89374 4.81221 5.11681 4.71 5.37984C4.61111 5.63427 4.54349 5.92505 4.52407 6.3508C4.5046 6.77744 4.5 6.91366 4.5 7.99998C4.5 9.08632 4.5046 9.22253 4.52407 9.64918C4.54349 10.0749 4.61111 10.3657 4.71 10.6201C4.81221 10.8832 4.94898 11.1062 5.17135 11.3286C5.39374 11.551 5.61681 11.6878 5.87985 11.79C6.13428 11.8889 6.42505 11.9565 6.85081 11.9759C7.27745 11.9954 7.41367 12 8.50001 12C9.58633 12 9.72255 11.9954 10.1492 11.9759C10.5749 11.9565 10.8657 11.8889 11.1202 11.79C11.3832 11.6878 11.6063 11.551 11.8286 11.3286C12.051 11.1062 12.1878 10.8832 12.29 10.6201C12.3889 10.3657 12.4565 10.0749 12.4759 9.64918C12.4954 9.22253 12.5 9.08632 12.5 7.99998C12.5 6.91366 12.4954 6.77744 12.4759 6.3508C12.4565 5.92505 12.3889 5.63427 12.29 5.37984C12.1878 5.11681 12.051 4.89374 11.8286 4.67135C11.6063 4.44898 11.3832 4.31221 11.1202 4.20999C10.8657 4.11111 10.5749 4.04349 10.1492 4.02407C9.72255 4.0046 9.58633 4 8.50001 4Z" fill="white"/>
<path d="M8.49937 5.94922C7.36494 5.94922 6.44531 6.86884 6.44531 8.00326C6.44531 9.13769 7.36494 10.0573 8.49937 10.0573C9.63379 10.0573 10.5534 9.13769 10.5534 8.00326C10.5534 6.86884 9.63379 5.94922 8.49937 5.94922ZM8.49937 9.33659C7.76298 9.33659 7.16603 8.73965 7.16603 8.00326C7.16603 7.26688 7.76298 6.66994 8.49937 6.66994C9.23575 6.66994 9.8327 7.26688 9.8327 8.00326C9.8327 8.73965 9.23575 9.33659 8.49937 9.33659Z" fill="white"/>
<path d="M11.1163 5.86673C11.1163 6.13181 10.9013 6.34672 10.6362 6.34672C10.3712 6.34672 10.1562 6.13181 10.1562 5.86673C10.1562 5.60163 10.3712 5.38672 10.6362 5.38672C10.9013 5.38672 11.1163 5.60163 11.1163 5.86673Z" fill="white"/>
</svg>
