<svg width="16" height="20" viewBox="0 0 16 20" fill="none" xmlns="http://www.w3.org/2000/svg">
<path d="M8.2132 2.40884C7.52069 2.40884 6.85654 2.68458 6.36686 3.17539C5.87718 3.66621 5.60209 4.33189 5.60209 5.02601V8.51557C5.60209 9.20969 5.87718 9.87537 6.36686 10.3662C6.85654 10.857 7.52069 11.1327 8.2132 11.1327C8.90571 11.1327 9.56985 10.857 10.0595 10.3662C10.5492 9.87537 10.8243 9.20969 10.8243 8.51557V5.02601C10.8243 4.33189 10.5492 3.66621 10.0595 3.17539C9.56985 2.68458 8.90571 2.40884 8.2132 2.40884ZM8.2132 0.664062C8.78469 0.664063 9.35059 0.776888 9.87858 0.996096C10.4066 1.2153 10.8863 1.5366 11.2904 1.94165C11.6945 2.34669 12.0151 2.82755 12.2338 3.35677C12.4525 3.88598 12.565 4.45319 12.565 5.02601V8.51557C12.565 9.67243 12.1065 10.7819 11.2904 11.5999C10.4743 12.418 9.36738 12.8775 8.2132 12.8775C7.05901 12.8775 5.9521 12.418 5.13597 11.5999C4.31984 10.7819 3.86134 9.67243 3.86134 8.51557V5.02601C3.86134 3.86915 4.31984 2.75967 5.13597 1.94165C5.9521 1.12362 7.05901 0.664063 8.2132 0.664062ZM0.427734 9.38796H2.18153C2.39241 10.8403 3.11794 12.168 4.22536 13.1281C5.33279 14.0883 6.74808 14.6167 8.21233 14.6167C9.67657 14.6167 11.0919 14.0883 12.1993 13.1281C13.3067 12.168 14.0322 10.8403 14.2431 9.38796H15.9978C15.7999 11.1578 15.0078 12.8077 13.7515 14.0671C12.4952 15.3264 10.8493 16.1205 9.08357 16.3191V19.8566H7.34283V16.3191C5.57696 16.1207 3.93079 15.3267 2.67431 14.0673C1.41784 12.8079 0.625668 11.1579 0.427734 9.38796Z" fill="#626168"/>
</svg>
