<svg width="44" height="58" viewBox="0 0 44 58" fill="none" xmlns="http://www.w3.org/2000/svg">
<path d="M42.66 30.5604L2.91375 57.0579C2.6314 57.2458 2.30336 57.3536 1.96459 57.3698C1.62582 57.386 1.289 57.31 0.989996 57.15C0.690995 56.9899 0.441014 56.7517 0.266676 56.4608C0.0923383 56.1699 0.000175202 55.8371 0 55.4979V2.50294C0.000175202 2.16378 0.0923383 1.83102 0.266676 1.5401C0.441014 1.24918 0.690995 1.01099 0.989996 0.850911C1.289 0.690828 1.62582 0.614842 1.96459 0.631048C2.30336 0.647254 2.6314 0.755046 2.91375 0.942939L42.66 27.4404C42.9168 27.6117 43.1273 27.8436 43.273 28.1158C43.4186 28.3879 43.4948 28.6918 43.4948 29.0004C43.4948 29.3091 43.4186 29.613 43.273 29.8851C43.1273 30.1572 42.9168 30.3892 42.66 30.5604Z" fill="#F8F8F8"/>
</svg>
