<svg width="40" height="40" viewBox="0 0 40 40" fill="none" xmlns="http://www.w3.org/2000/svg">
<rect opacity="0.2" width="40" height="40" rx="20" fill="#F3F2F2"/>
<path d="M20.9329 24.1863L17.4337 22.278C16.9768 22.7664 16.3837 23.1061 15.7312 23.2529C15.0788 23.3997 14.3973 23.3469 13.7753 23.1014C13.1533 22.8558 12.6195 22.4288 12.2433 21.8759C11.8672 21.3229 11.666 20.6697 11.666 20.0009C11.666 19.3322 11.8672 18.6789 12.2433 18.126C12.6195 17.573 13.1533 17.146 13.7753 16.9005C14.3973 16.6549 15.0788 16.6021 15.7312 16.7489C16.3837 16.8958 16.9768 17.2354 17.4337 17.7238L20.9337 15.8155C20.735 15.0289 20.83 14.1968 21.2009 13.4752C21.5718 12.7537 22.1931 12.1921 22.9484 11.8959C23.7037 11.5997 24.5411 11.5891 25.3037 11.8661C26.0662 12.1431 26.7016 12.6888 27.0906 13.4007C27.4796 14.1127 27.5957 14.9421 27.4169 15.7334C27.2382 16.5248 26.777 17.2239 26.1197 17.6995C25.4625 18.1751 24.6543 18.3948 23.8467 18.3172C23.0391 18.2396 22.2875 17.8701 21.7329 17.278L18.2329 19.1863C18.3672 19.7208 18.3672 20.2802 18.2329 20.8147L21.732 22.723C22.2867 22.1309 23.0383 21.7614 23.8459 21.6838C24.6534 21.6062 25.4616 21.8258 26.1189 22.3015C26.7761 22.7771 27.2374 23.4762 27.4161 24.2675C27.5948 25.0589 27.4788 25.8883 27.0898 26.6003C26.7007 27.3122 26.0654 27.8579 25.3028 28.1349C24.5403 28.4119 23.7029 28.4013 22.9476 28.1051C22.1923 27.8088 21.5709 27.2473 21.2 26.5257C20.8291 25.8042 20.7341 24.9721 20.9329 24.1855V24.1863ZM14.9995 21.6672C15.4415 21.6672 15.8655 21.4916 16.178 21.179C16.4906 20.8664 16.6662 20.4425 16.6662 20.0005C16.6662 19.5585 16.4906 19.1345 16.178 18.822C15.8655 18.5094 15.4415 18.3338 14.9995 18.3338C14.5575 18.3338 14.1336 18.5094 13.821 18.822C13.5084 19.1345 13.3329 19.5585 13.3329 20.0005C13.3329 20.4425 13.5084 20.8664 13.821 21.179C14.1336 21.4916 14.5575 21.6672 14.9995 21.6672ZM24.1662 16.6672C24.6082 16.6672 25.0321 16.4916 25.3447 16.179C25.6573 15.8664 25.8329 15.4425 25.8329 15.0005C25.8329 14.5585 25.6573 14.1345 25.3447 13.822C25.0321 13.5094 24.6082 13.3338 24.1662 13.3338C23.7242 13.3338 23.3002 13.5094 22.9877 13.822C22.6751 14.1345 22.4995 14.5585 22.4995 15.0005C22.4995 15.4425 22.6751 15.8664 22.9877 16.179C23.3002 16.4916 23.7242 16.6672 24.1662 16.6672ZM24.1662 26.6672C24.6082 26.6672 25.0321 26.4916 25.3447 26.179C25.6573 25.8664 25.8329 25.4425 25.8329 25.0005C25.8329 24.5585 25.6573 24.1345 25.3447 23.822C25.0321 23.5094 24.6082 23.3338 24.1662 23.3338C23.7242 23.3338 23.3002 23.5094 22.9877 23.822C22.6751 24.1345 22.4995 24.5585 22.4995 25.0005C22.4995 25.4425 22.6751 25.8664 22.9877 26.179C23.3002 26.4916 23.7242 26.6672 24.1662 26.6672Z" fill="white"/>
</svg>
