<svg width="44" height="42" viewBox="0 0 44 42" fill="none" xmlns="http://www.w3.org/2000/svg">
<rect width="44" height="42" rx="21" fill="#FCE4EC"/>
<path d="M25.333 15.0013H27.9997C28.1765 15.0013 28.3461 15.0715 28.4711 15.1966C28.5961 15.3216 28.6663 15.4912 28.6663 15.668V26.3346C28.6663 26.5114 28.5961 26.681 28.4711 26.806C28.3461 26.9311 28.1765 27.0013 27.9997 27.0013H15.9997C15.8229 27.0013 15.6533 26.9311 15.5283 26.806C15.4032 26.681 15.333 26.5114 15.333 26.3346V15.668C15.333 15.4912 15.4032 15.3216 15.5283 15.1966C15.6533 15.0715 15.8229 15.0013 15.9997 15.0013H18.6663V13.668H19.9997V15.0013H23.9997V13.668H25.333V15.0013ZM27.333 20.3346H16.6663V25.668H27.333V20.3346ZM23.9997 16.3346H19.9997V17.668H18.6663V16.3346H16.6663V19.0013H27.333V16.3346H25.333V17.668H23.9997V16.3346ZM17.9997 21.668H19.333V23.0013H17.9997V21.668ZM21.333 21.668H22.6663V23.0013H21.333V21.668ZM24.6663 21.668H25.9997V23.0013H24.6663V21.668Z" fill="#D81B60"/>
</svg>
