<svg width="42" height="42" viewBox="0 0 42 42" fill="none" xmlns="http://www.w3.org/2000/svg">
<rect width="42" height="42" rx="21" fill="#F1F8E9"/>
<path d="M15.5565 15.2484V22.3923C15.5565 22.9044 15.683 23.4087 15.9246 23.8602C16.1663 24.3117 16.5156 24.6966 16.9418 24.9808L21.001 27.6874L25.0602 24.9808C25.4862 24.6967 25.8355 24.3119 26.0771 23.8605C26.3188 23.4091 26.4453 22.9051 26.4454 22.3931V15.2484L21.001 14.0398L15.5565 15.2484ZM14.61 13.8655L21.001 12.4453L27.392 13.8655C27.5647 13.9039 27.7192 14.0001 27.8299 14.1381C27.9406 14.2761 28.0009 14.4477 28.001 14.6246V22.3923C28.0009 23.1605 27.8112 23.9169 27.4487 24.5942C27.0861 25.2715 26.562 25.8489 25.9228 26.275L21.001 29.5564L16.0792 26.275C15.4401 25.8489 14.916 25.2717 14.5535 24.5946C14.1909 23.9174 14.0012 23.1612 14.001 22.3931V14.6246C14.001 14.4477 14.0614 14.2761 14.1721 14.1381C14.2828 14.0001 14.4373 13.9039 14.61 13.8655V13.8655ZM21.001 22.1675L18.7151 23.3692L19.1514 20.8243L17.3026 19.0214L19.8584 18.6496L21.001 16.3342L22.1443 18.6496L24.6993 19.0214L22.8505 20.8243L23.2861 23.3692L21.001 22.1675Z" fill="#689F38"/>
</svg>
