<svg width="42" height="42" viewBox="0 0 42 42" fill="none" xmlns="http://www.w3.org/2000/svg">
<rect width="42" height="42" rx="21" fill="#E1F5FE"/>
<path d="M20.9995 28.7782C16.7038 28.7782 13.2217 25.2961 13.2217 21.0004C13.2217 16.7048 16.7038 13.2227 20.9995 13.2227C25.2951 13.2227 28.7772 16.7048 28.7772 21.0004C28.7772 25.2961 25.2951 28.7782 20.9995 28.7782ZM20.9995 27.2227C22.6497 27.2227 24.2323 26.5671 25.3992 25.4002C26.5661 24.2333 27.2217 22.6507 27.2217 21.0004C27.2217 19.3502 26.5661 17.7676 25.3992 16.6007C24.2323 15.4338 22.6497 14.7782 20.9995 14.7782C19.3492 14.7782 17.7666 15.4338 16.5997 16.6007C15.4328 17.7676 14.7772 19.3502 14.7772 21.0004C14.7772 22.6507 15.4328 24.2333 16.5997 25.4002C17.7666 26.5671 19.3492 27.2227 20.9995 27.2227ZM19.9277 18.2121L23.7225 20.7414C23.7651 20.7698 23.8001 20.8083 23.8243 20.8535C23.8485 20.8987 23.8612 20.9492 23.8612 21.0004C23.8612 21.0517 23.8485 21.1022 23.8243 21.1473C23.8001 21.1925 23.7651 21.231 23.7225 21.2594L19.9269 23.7888C19.8801 23.8198 19.8258 23.8376 19.7697 23.8402C19.7136 23.8429 19.6578 23.8303 19.6083 23.8038C19.5588 23.7773 19.5174 23.738 19.4884 23.6899C19.4595 23.6417 19.4441 23.5867 19.4439 23.5305V18.4703C19.444 18.4141 19.4594 18.3589 19.4884 18.3106C19.5173 18.2624 19.5589 18.2229 19.6085 18.1964C19.6582 18.1699 19.7141 18.1574 19.7703 18.1602C19.8265 18.1629 19.8809 18.1809 19.9277 18.2121Z" fill="#0288D1"/>
</svg>
