<svg width="254" height="205" viewBox="0 0 254 205" fill="none" xmlns="http://www.w3.org/2000/svg">
<g clip-path="url(#clip0_2128_90883)">
<path d="M176.87 199.534L172.168 199.533L169.932 181.333H176.871L176.87 199.534Z" fill="#FFB6B6"/>
<path d="M176.744 197.992L171.724 195.943L171.58 195.884L168.809 197.992C167.244 197.992 165.743 198.617 164.637 199.727C163.53 200.838 162.908 202.344 162.908 203.914V204.107H178.067V197.992H176.744Z" fill="#2F2E41"/>
<path d="M219.351 193.398L215.143 195.503L205.052 180.215L211.262 177.108L219.351 193.398Z" fill="#FFB6B6"/>
<path d="M219.741 191.481L218.665 192.018L218.554 192.073L213.158 192.491L212.996 192.502L211.452 195.628C210.758 195.975 210.14 196.455 209.631 197.042C209.123 197.629 208.735 198.311 208.489 199.049C208.243 199.786 208.145 200.565 208.199 201.341C208.253 202.117 208.46 202.874 208.806 203.57L208.89 203.74L222.457 196.956L219.741 191.481Z" fill="#2F2E41"/>
<path d="M173.681 101.707L199.607 102.618L199.787 102.354C199.787 102.354 201.999 107.533 201.999 111.972C201.999 113.447 200.976 123.1 201.496 124.926C201.561 125.153 201.116 125.71 201.262 126.768C201.356 127.454 201.879 126.926 201.999 127.877C202.085 128.56 201.165 128.937 201.262 129.727C201.367 130.59 202.631 133.385 202.745 134.345C203.957 144.563 205.571 159.367 205.571 159.367C205.571 159.367 212.053 176.791 213.424 177.074C215.726 177.549 217.28 181.749 216.004 182.622C215.397 183.038 207.548 185.836 207.548 185.836C207.116 185.915 205.767 185.236 206.627 183.629C206.785 183.334 205.841 184.086 205.684 183.732C205.518 183.356 205.845 181.858 205.654 181.44C203.939 177.688 201.305 172.489 198.809 169.819C195.121 165.874 192.786 160.85 192.144 155.48L186.419 123.622L184.457 132.556L182.833 134.166L183.279 137.92L183.202 141.564L179.148 156.73C179.148 156.73 178.54 185.052 179.516 185.952C180.045 186.439 182.29 192.439 178.042 192.98L170.325 192.382C170.325 192.382 169.285 190.183 169.805 189.4C170.325 188.618 170.294 188.831 169.66 187.551C169.025 186.27 169.285 184.099 169.285 184.099C168.274 173.9 167.875 163.648 168.091 153.4C168.478 136.569 170.822 117.233 170.822 116.839C170.842 116.436 170.768 116.034 170.606 115.665V114.603L171.602 110.838L173.681 101.707Z" fill="#2F2E41"/>
<path d="M210.164 104.889C215.819 104.889 220.403 100.288 220.403 94.6127C220.403 88.9376 215.819 84.3369 210.164 84.3369C204.51 84.3369 199.926 88.9376 199.926 94.6127C199.926 100.288 204.51 104.889 210.164 104.889Z" fill="#6C63FF"/>
<path d="M208.767 99.9609C208.59 99.9609 208.416 99.9196 208.258 99.8402C208.1 99.7608 207.962 99.6456 207.856 99.5036L205.063 95.7657C204.973 95.6456 204.908 95.5089 204.871 95.3635C204.833 95.2181 204.825 95.0668 204.846 94.9182C204.868 94.7696 204.918 94.6266 204.994 94.4975C205.07 94.3683 205.171 94.2555 205.291 94.1654C205.41 94.0754 205.546 94.0099 205.691 93.9726C205.836 93.9354 205.987 93.9271 206.135 93.9484C206.283 93.9696 206.425 94.0199 206.554 94.0964C206.683 94.1728 206.795 94.274 206.885 94.3941L208.712 96.8393L213.406 89.7735C213.489 89.6485 213.596 89.5411 213.72 89.4574C213.844 89.3738 213.984 89.3155 214.13 89.286C214.277 89.2564 214.428 89.2562 214.575 89.2854C214.722 89.3145 214.862 89.3723 214.986 89.4556C215.111 89.539 215.217 89.6461 215.301 89.7709C215.384 89.8957 215.442 90.0358 215.471 90.1831C215.5 90.3304 215.501 90.482 215.471 90.6293C215.442 90.7766 215.384 90.9168 215.301 91.0417L209.715 99.4519C209.614 99.604 209.478 99.7295 209.318 99.818C209.159 99.9065 208.981 99.9554 208.799 99.9605C208.788 99.9607 208.778 99.9609 208.767 99.9609Z" fill="white"/>
<path d="M215.227 105.477C215.326 105.057 215.333 104.62 215.246 104.196C215.16 103.773 214.982 103.374 214.725 103.028C214.468 102.681 214.138 102.395 213.759 102.191C213.38 101.986 212.961 101.867 212.532 101.842L207.285 83.9023L203.736 88.0359L209.383 104.833C209.389 105.56 209.661 106.26 210.147 106.799C210.633 107.339 211.299 107.68 212.02 107.76C212.74 107.839 213.464 107.651 214.055 107.23C214.646 106.809 215.063 106.185 215.227 105.477Z" fill="#FFB8B8"/>
<path d="M211.526 96.725L210.844 94.2171L211.625 92.719L211.566 92.5451L211.33 91.8719L210.107 90.888L210.545 89.634L208.997 85.2211L208.618 84.4554L199.732 66.5486L197.601 62.254L197.107 61.4772L195.571 59.0581L193.47 55.7549C193.136 55.2269 192.7 54.7709 192.189 54.4134C191.678 54.0559 191.101 53.804 190.492 53.6723C190.295 53.6289 190.095 53.598 189.895 53.5799L189.751 53.5688C189.392 53.5489 189.032 53.57 188.678 53.6316H188.671C188.047 53.7403 187.452 53.977 186.924 54.3271C186.508 54.5973 186.137 54.9319 185.826 55.3184C185.108 56.2117 184.735 57.3344 184.775 58.481L184.842 60.2861L184.908 61.9285L188.026 67.588L188.229 67.9579L188.232 67.969L197.826 85.3913L200.719 90.6438L201.158 91.4428L203.104 92.7375L202.584 94.0395L202.735 96.0666L204.39 97.3205L206.79 99.7656L206.885 99.9653L207.623 99.5917L207.693 99.5547L207.858 99.5066L210.14 98.8149L211.526 98.3969L211.57 98.3821L211.949 98.286L211.526 96.725Z" fill="#E6E6E6"/>
<path d="M250.966 178.162C250.271 177.275 249.328 176.617 248.257 176.274C247.186 175.93 246.037 175.917 244.959 176.235L244.723 176.305L242.607 184.594C242.29 183.359 241.612 180.57 241.184 177.84L241.148 177.614L240.938 177.707C238.726 178.688 236.647 179.946 234.749 181.45C231.388 184.156 228.654 187.565 226.738 191.438C224.821 195.312 223.768 199.558 223.652 203.881L223.648 204.04L223.645 204.14L223.925 204.04L229.936 201.884C232.597 202.119 235.278 201.755 237.781 200.818C240.284 199.881 242.548 198.395 244.406 196.468C246.835 193.897 248.5 190.59 250.111 187.391C250.583 186.459 251.066 185.497 251.56 184.572C252.11 183.567 252.348 182.418 252.243 181.276C252.137 180.133 251.692 179.048 250.966 178.162Z" fill="#F2F2F2"/>
<path d="M96.7059 40.5558H95.9688V12.0576H149.284V12.7974H96.7059V40.5558Z" fill="#3F3D56"/>
<path d="M157.459 20.5516C163.114 20.5516 167.698 15.951 167.698 10.2758C167.698 4.60064 163.114 0 157.459 0C151.805 0 147.221 4.60064 147.221 10.2758C147.221 15.951 151.805 20.5516 157.459 20.5516Z" fill="#6C63FF"/>
<path d="M156.063 15.624C155.886 15.624 155.712 15.5826 155.554 15.5033C155.395 15.4239 155.258 15.3087 155.152 15.1667L152.359 11.4287C152.269 11.3086 152.204 11.172 152.166 11.0266C152.129 10.8812 152.121 10.7299 152.142 10.5813C152.163 10.4327 152.214 10.2897 152.29 10.1606C152.366 10.0314 152.467 9.91858 152.586 9.82852C152.706 9.73846 152.842 9.67294 152.987 9.63569C153.132 9.59844 153.283 9.5902 153.431 9.61143C153.579 9.63266 153.721 9.68296 153.85 9.75944C153.979 9.83592 154.091 9.93709 154.181 10.0572L156.008 12.5024L160.702 5.43662C160.785 5.31158 160.891 5.20416 161.016 5.1205C161.14 5.03684 161.28 4.97858 161.426 4.94906C161.573 4.91954 161.724 4.91932 161.871 4.94844C162.018 4.97755 162.157 5.03542 162.282 5.11873C162.406 5.20205 162.513 5.30918 162.597 5.43399C162.68 5.55881 162.738 5.69886 162.767 5.84616C162.796 5.99345 162.796 6.14509 162.767 6.29241C162.738 6.43973 162.68 6.57984 162.597 6.70474L157.011 15.1149C156.91 15.267 156.774 15.3926 156.614 15.4811C156.455 15.5696 156.277 15.6185 156.095 15.6236C156.084 15.6238 156.074 15.624 156.063 15.624Z" fill="white"/>
<path d="M60.5867 109.744H59.8496V138.242H113.165V137.503H60.5867V109.744Z" fill="#3F3D56"/>
<path d="M121.34 148.537C126.995 148.537 131.579 143.936 131.579 138.261C131.579 132.586 126.995 127.985 121.34 127.985C115.686 127.985 111.102 132.586 111.102 138.261C111.102 143.936 115.686 148.537 121.34 148.537Z" fill="#6C63FF"/>
<path d="M119.944 143.609C119.767 143.609 119.593 143.568 119.434 143.489C119.276 143.409 119.139 143.294 119.033 143.152L116.239 139.414C116.15 139.294 116.084 139.157 116.047 139.012C116.01 138.867 116.002 138.715 116.023 138.567C116.044 138.418 116.094 138.275 116.171 138.146C116.247 138.017 116.348 137.904 116.467 137.814C116.587 137.724 116.723 137.658 116.868 137.621C117.013 137.584 117.164 137.576 117.312 137.597C117.46 137.618 117.602 137.668 117.731 137.745C117.86 137.821 117.972 137.922 118.062 138.043L119.889 140.488L124.583 133.422C124.666 133.297 124.772 133.19 124.897 133.106C125.021 133.022 125.16 132.964 125.307 132.934C125.454 132.905 125.605 132.905 125.752 132.934C125.899 132.963 126.038 133.021 126.163 133.104C126.287 133.187 126.394 133.295 126.477 133.419C126.561 133.544 126.619 133.684 126.648 133.832C126.677 133.979 126.677 134.13 126.648 134.278C126.619 134.425 126.561 134.565 126.478 134.69L120.892 143.1C120.79 143.252 120.655 143.378 120.495 143.466C120.336 143.555 120.158 143.604 119.975 143.609C119.965 143.609 119.954 143.609 119.944 143.609Z" fill="white"/>
<path d="M202.367 110.792C202.377 111.571 202.253 112.345 201.998 113.081L201.943 113.07C195.397 114.206 189.558 114.392 186.856 110.36C183.332 105.856 178.484 105.907 173.077 107.884L172.436 107.189L171.345 106.009L172.347 104.87L171.345 102.672L172.181 99.961L173.25 99.7649L172.963 97.4309L172.513 96.0659L173.833 94.6122L174.953 90.9835L174.146 83.3895C173.041 72.9802 175.181 62.4834 180.271 53.3462L183.334 50.5868L184.606 49.4401L186.312 46.2441L188.114 46.455L192.994 47.0209L193.16 47.4204L194.358 50.3204L200.668 57.1229L200.384 59.9933L200.259 61.2584L200.166 62.1683L199.731 66.5479L197.959 84.44L197.826 85.3906L196.4 95.6776C198.718 97.9265 200.767 102.258 201.751 106.216C201.862 106.656 201.548 107.104 201.63 107.533C201.744 108.139 202.241 108.717 202.297 109.282C202.348 109.784 202.372 110.288 202.367 110.792Z" fill="#E6E6E6"/>
<path d="M189.869 45.0985C194.55 45.0985 198.345 41.2901 198.345 36.5922C198.345 31.8943 194.55 28.0859 189.869 28.0859C185.188 28.0859 181.394 31.8943 181.394 36.5922C181.394 41.2901 185.188 45.0985 189.869 45.0985Z" fill="#FFB6B6"/>
<path d="M200.087 34.2718C199.585 32.7023 198.209 31.3743 196.576 31.2008C196.7 30.1584 196.536 29.1018 196.103 28.1462C195.67 27.1906 194.984 26.3726 194.12 25.7812C193.255 25.1898 192.246 24.8477 191.201 24.7922C190.157 24.7367 189.117 24.9698 188.195 25.4663C188 25.2301 187.747 25.0487 187.46 24.9396C187.174 24.8304 186.865 24.7973 186.562 24.8434C185.957 24.9434 185.387 25.1943 184.903 25.5729C183.703 26.4543 182.762 27.646 182.183 29.0211C181.603 30.3963 181.406 31.9033 181.613 33.382C181.609 32.6319 181.94 34.0831 182.889 34.2113C183.681 34.371 184.434 34.6828 185.107 35.1294C185.78 35.5759 186.531 35.8918 187.32 36.0605C188.117 36.1774 188.322 39.3822 187.753 41.4462C187.645 41.8374 187.591 42.3622 187.95 42.5486C188.392 42.7782 188.839 42.201 189.334 42.1448C189.556 42.1413 189.771 42.2244 189.933 42.3767C190.095 42.529 190.192 42.7385 190.204 42.9611C190.204 43.1844 190.151 43.4046 190.05 43.6033C189.948 43.8021 189.801 43.9736 189.62 44.1037C189.256 44.3602 188.854 44.556 188.428 44.6835L188.571 44.8871C188.696 45.1199 188.897 45.3017 189.141 45.4015C189.385 45.5013 189.656 45.5129 189.908 45.4341C190.475 46.1203 196.315 44.2151 196.6 42.9628C197.823 41.8567 198.839 40.5397 199.6 39.0741C200.359 37.5922 200.533 35.877 200.087 34.2718Z" fill="#2F2E41"/>
<path d="M206.94 60.1782C206.823 61.1695 205.897 61.9093 204.924 62.1164C204.43 62.212 203.922 62.2207 203.424 62.1423C202.938 62.0699 202.458 61.9623 201.987 61.8205C201.405 61.6541 200.828 61.4666 200.258 61.2583C198.63 60.6747 197.06 59.9378 195.57 59.0574C194.444 58.3972 193.365 57.658 192.342 56.8454C191.811 56.4237 191.296 55.9835 190.797 55.5248L191.42 55.8207C190.864 55.0698 190.307 54.3189 189.751 53.568C189.213 52.843 188.676 52.118 188.14 51.393C188.107 51.3487 188.081 51.3191 188.07 51.3043V51.3006C187.823 50.9714 187.58 50.6421 187.337 50.3129C186.603 49.3253 185.881 47.8753 186.725 46.9838C186.905 46.8102 187.123 46.6819 187.362 46.6092C187.601 46.5366 187.854 46.5217 188.099 46.5658C188.364 46.6003 188.62 46.6831 188.855 46.81C189.5 47.229 190.047 47.7829 190.458 48.4338C191.033 47.5942 192.15 47.2835 193.16 47.4203C193.215 47.424 193.267 47.4314 193.318 47.4388C194.369 47.6201 194.822 47.0504 195.732 47.609C196.156 47.8679 196.414 49.1995 196.838 49.4585C197.078 49.6064 197.966 49.8284 198.209 49.98C198.688 50.2759 198.567 51.3819 199.05 51.6779C199.407 51.8961 200.365 51.308 200.723 51.5262C201.099 51.7592 201.622 53.298 201.998 53.5274C202.746 53.9897 203.347 53.1464 204.095 53.605C205.057 54.2006 206.082 54.8627 206.487 55.9206C206.845 56.8528 206.384 58.1289 205.496 58.3952C205.92 58.4461 206.308 58.6605 206.578 58.9933C206.847 59.326 206.977 59.7509 206.94 60.1782Z" fill="#E6E6E6"/>
<path opacity="0.2" d="M200.259 61.2581L200.167 62.168C199.122 62.0671 198.095 61.8347 197.108 61.4763C195.809 61.0387 194.682 60.198 193.89 59.0757C193.389 58.3211 192.866 57.5702 192.342 56.8452C191.472 55.6319 190.61 54.5 189.895 53.579C189.022 52.4656 188.365 51.6592 188.141 51.3928C188.107 51.3485 188.082 51.3189 188.071 51.3041L188.06 51.293L188.071 51.3004C192.45 56.8631 196.586 60.0709 200.384 59.993C200.384 59.993 200.83 61.4652 200.259 61.2581Z" fill="black"/>
<path d="M160.183 16.7117C160.075 17.1299 160.06 17.5667 160.138 17.9914C160.217 18.4161 160.387 18.8184 160.637 19.1699C160.888 19.5214 161.212 19.8135 161.586 20.0258C161.961 20.238 162.378 20.3652 162.807 20.3983L167.707 38.4363L171.335 34.3724L166.013 17.4691C166.021 16.7419 165.762 16.0371 165.287 15.4883C164.811 14.9394 164.152 14.5847 163.433 14.4914C162.715 14.398 161.987 14.5725 161.388 14.9817C160.789 15.3909 160.36 16.0064 160.183 16.7117Z" fill="#FFB8B8"/>
<path d="M188.948 62.8377L188.914 61.1954L185.826 55.3177L185.712 55.1031L185.704 55.092L183.334 50.5866L171.899 28.8269L170.671 28.3742L170.732 26.6066L170.671 24.6752L169.195 23.6824L168.566 22.4854L167.674 22.7406H167.67L167.645 22.748L163.745 23.8466H163.742L162.931 24.3053L162.194 26.5247L162.032 27.5754L162.194 29.4839L164.036 29.8538L163.426 31.8107L165.278 37.4404C167.597 47.2797 170.763 55.7726 176.229 60.622L176.678 61.3618L180.235 67.2025C180.72 68.0015 181.43 68.6383 182.276 69.0327C183.121 69.427 184.064 69.5612 184.986 69.4182H184.989C185.615 69.3208 186.214 69.0968 186.751 68.7598C187.246 68.4533 187.679 68.0554 188.026 67.5872C188.661 66.7408 188.997 65.706 188.981 64.6465L188.948 62.8377Z" fill="#E6E6E6"/>
<path d="M253.561 204.887L153.404 205C153.287 205 153.176 204.954 153.093 204.871C153.011 204.789 152.965 204.677 152.965 204.56C152.965 204.443 153.011 204.331 153.093 204.249C153.176 204.166 153.287 204.12 153.404 204.12L253.561 204.006C253.677 204.006 253.789 204.052 253.871 204.135C253.953 204.217 254 204.33 254 204.446C254 204.563 253.953 204.675 253.871 204.758C253.789 204.84 253.677 204.887 253.561 204.887Z" fill="#CACACA"/>
<path d="M30.8226 56.857C30.8165 51.2967 32.9331 45.9453 36.7374 41.9031L23.6817 23.8685C23.1443 23.1255 22.4536 22.5075 21.6568 22.0565C20.8599 21.6055 19.9756 21.3321 19.064 21.255C18.1524 21.1779 17.235 21.2988 16.3742 21.6096C15.5134 21.9204 14.7294 22.4137 14.0756 23.0559C9.60329 27.4314 6.05271 32.6644 3.63477 38.444C1.21682 44.2235 -0.0191627 50.4319 0.00022459 56.7002C0.000261005 59.0673 0.176096 61.4311 0.526261 63.772C0.663632 64.6975 1.0005 65.5818 1.51338 66.3631C2.02626 67.1445 2.7028 67.8042 3.49582 68.2962C4.2799 68.7833 5.16039 69.0928 6.07591 69.2032C6.99142 69.3136 7.91991 69.2222 8.79662 68.9354L31.34 61.584C30.9969 60.0319 30.8234 58.4468 30.8226 56.857Z" fill="white"/>
<path d="M32.0215 64.0029L8.58457 71.6457C7.71719 71.9271 6.92022 72.3923 6.24766 73.0098C5.5751 73.6274 5.04266 74.3828 4.68643 75.2249C4.3302 76.0671 4.15849 76.9762 4.18295 77.8908C4.20742 78.8053 4.42747 79.7039 4.8282 80.5256C8.16582 87.3214 13.0858 93.2101 19.1717 97.693C25.2576 102.176 32.3302 105.121 39.7906 106.279C40.6992 106.419 41.6273 106.361 42.5111 106.107C43.395 105.853 44.2137 105.411 44.9111 104.81C45.6076 104.21 46.1666 103.467 46.5497 102.63C46.9328 101.793 47.131 100.883 47.1306 99.9625V77.9932C43.6594 77.0893 40.4643 75.3395 37.8286 72.899C35.1929 70.4585 33.1982 67.4027 32.0215 64.0029Z" fill="#E6E6E6"/>
<path d="M102.502 77.7291C102.106 76.7861 101.513 75.9396 100.762 75.2474C100.011 74.5551 99.1207 74.0332 98.151 73.7172L72.59 65.3818C71.0979 68.9037 68.71 71.9702 65.6654 74.2743C62.6207 76.5783 59.0263 78.0391 55.2422 78.5102V105.239C55.2427 106.265 55.4642 107.279 55.8915 108.211C56.3188 109.143 56.9418 109.971 57.7179 110.639C58.4939 111.307 59.4046 111.798 60.3876 112.08C61.3706 112.362 62.4026 112.427 63.413 112.271C71.7179 110.982 79.5909 107.703 86.3657 102.713C93.1404 97.7224 98.6173 91.1673 102.333 83.6023C102.78 82.6929 103.026 81.6976 103.055 80.6842C103.084 79.6707 102.896 78.6628 102.502 77.7291Z" fill="#3F3D56"/>
<path d="M96.1512 16.4207C95.4235 15.7057 94.5508 15.1565 93.5925 14.8106C92.6343 14.4646 91.613 14.3299 90.5982 14.4158C89.5834 14.5016 88.599 14.8059 87.712 15.308C86.8249 15.81 86.0561 16.4981 85.4579 17.3252L67.9824 41.4653C69.9928 43.4879 71.5866 45.8881 72.6727 48.5289C73.7588 51.1697 74.316 53.9993 74.3124 56.8563C74.3124 57.3878 74.2869 57.9129 74.2496 58.4348L102.028 67.4934C103.01 67.8116 104.05 67.911 105.074 67.7848C106.098 67.6586 107.083 67.3098 107.96 66.7627C108.836 66.2155 109.583 65.4832 110.148 64.6167C110.714 63.7502 111.085 62.7704 111.234 61.7455C111.624 59.1395 111.82 56.508 111.82 53.8729C111.841 46.8951 110.465 39.9841 107.774 33.5504C105.082 27.1167 101.13 21.2914 96.1512 16.4207Z" fill="#6C63FF"/>
<path d="M52.5673 35.0322C56.3086 35.028 59.987 35.9974 63.2434 37.8458L73.9096 23.1118C74.4534 22.3614 74.8284 21.5016 75.0088 20.5916C75.1892 19.6816 75.1708 18.7432 74.9547 17.8411C74.7455 16.9562 74.3475 16.1273 73.7881 15.4118C73.2287 14.6963 72.5213 14.1111 71.7147 13.6967C65.1294 10.3354 57.8478 8.57823 50.4598 8.56743C43.0718 8.55664 35.7852 10.2925 29.1902 13.6345C28.3585 14.0557 27.628 14.6533 27.0493 15.386C26.4705 16.1186 26.0574 16.9688 25.8386 17.8775C25.6227 18.7734 25.6036 19.7056 25.7824 20.6096C25.9612 21.5135 26.3337 22.3677 26.8741 23.1129L38.9741 39.8275C42.8266 36.7181 47.6236 35.0259 52.5673 35.0322Z" fill="#E6E6E6"/>
</g>
<defs>
<clipPath id="clip0_2128_90883">
<rect width="254" height="205" fill="white"/>
</clipPath>
</defs>
</svg>
