<svg width="264" height="284" viewBox="0 0 264 284" fill="none" xmlns="http://www.w3.org/2000/svg">
<g clip-path="url(#clip0_2128_90821)">
<path d="M248.344 216.065H49.9035C48.1354 216.063 46.4403 215.358 45.19 214.106C43.9397 212.853 43.2364 211.154 43.2344 209.383V47.4887C43.2364 45.7171 43.9397 44.0187 45.19 42.766C46.4403 41.5134 48.1354 40.8087 49.9035 40.8066H248.344C250.113 40.8087 251.808 41.5134 253.058 42.766C254.308 44.0187 255.012 45.7171 255.014 47.4887V209.383C255.012 211.154 254.308 212.853 253.058 214.106C251.808 215.358 250.113 216.063 248.344 216.065Z" fill="#E6E6E6"/>
<path d="M229.063 211.558H54.4026C52.6344 211.556 50.9393 210.851 49.689 209.598C48.4387 208.346 47.7354 206.647 47.7334 204.876V51.9994C47.7354 50.2279 48.4387 48.5295 49.689 47.2768C50.9393 46.0241 52.6344 45.3194 54.4026 45.3174H243.845C245.614 45.3194 247.309 46.0241 248.559 47.2768C249.809 48.5295 250.513 50.2279 250.515 51.9994V190.065C250.508 195.763 248.246 201.226 244.225 205.256C240.203 209.285 234.75 211.551 229.063 211.558Z" fill="white"/>
<path d="M181.067 79.8851H101.309C101.083 79.8855 100.859 79.8412 100.65 79.7547C100.441 79.6683 100.251 79.5414 100.091 79.3814C99.9307 79.2213 99.8037 79.0312 99.7171 78.8219C99.6305 78.6127 99.5859 78.3883 99.5859 78.1618C99.5859 77.9352 99.6305 77.7109 99.7171 77.5016C99.8037 77.2924 99.9307 77.1022 100.091 76.9422C100.251 76.7821 100.441 76.6552 100.65 76.5688C100.859 76.4824 101.083 76.4381 101.309 76.4385H181.067C181.523 76.4392 181.959 76.6211 182.281 76.9442C182.603 77.2673 182.784 77.7052 182.784 78.1618C182.784 78.6183 182.603 79.0562 182.281 79.3793C181.959 79.7024 181.523 79.8843 181.067 79.8851Z" fill="#6C63FF"/>
<path d="M221.442 98.2718H101.309C100.853 98.2718 100.415 98.0903 100.093 97.7671C99.7701 97.4439 99.5889 97.0056 99.5889 96.5485C99.5889 96.0915 99.7701 95.6531 100.093 95.33C100.415 95.0068 100.853 94.8252 101.309 94.8252H221.442C221.898 94.8252 222.336 95.0068 222.658 95.33C222.981 95.6531 223.162 96.0915 223.162 96.5485C223.162 97.0056 222.981 97.4439 222.658 97.7671C222.336 98.0903 221.898 98.2718 221.442 98.2718Z" fill="#E6E6E6"/>
<path d="M221.442 116.659H101.309C101.083 116.659 100.859 116.615 100.65 116.528C100.441 116.442 100.251 116.315 100.091 116.155C99.9307 115.995 99.8037 115.805 99.7171 115.595C99.6305 115.386 99.5859 115.162 99.5859 114.935C99.5859 114.709 99.6305 114.484 99.7171 114.275C99.8037 114.066 99.9307 113.876 100.091 113.716C100.251 113.556 100.441 113.429 100.65 113.342C100.859 113.256 101.083 113.212 101.309 113.212H221.442C221.898 113.213 222.334 113.395 222.656 113.718C222.978 114.041 223.159 114.479 223.159 114.935C223.159 115.392 222.978 115.83 222.656 116.153C222.334 116.476 221.898 116.658 221.442 116.659Z" fill="#E6E6E6"/>
<path d="M221.442 135.044H101.309C100.853 135.044 100.415 134.863 100.093 134.54C99.7701 134.216 99.5889 133.778 99.5889 133.321C99.5889 132.864 99.7701 132.426 100.093 132.102C100.415 131.779 100.853 131.598 101.309 131.598H221.442C221.898 131.598 222.336 131.779 222.658 132.102C222.981 132.426 223.162 132.864 223.162 133.321C223.162 133.778 222.981 134.216 222.658 134.54C222.336 134.863 221.898 135.044 221.442 135.044Z" fill="#E6E6E6"/>
<path d="M221.442 153.431H101.309C100.853 153.431 100.415 153.249 100.093 152.926C99.7701 152.603 99.5889 152.165 99.5889 151.708C99.5889 151.251 99.7701 150.812 100.093 150.489C100.415 150.166 100.853 149.984 101.309 149.984H221.442C221.898 149.984 222.336 150.166 222.658 150.489C222.981 150.812 223.162 151.251 223.162 151.708C223.162 152.165 222.981 152.603 222.658 152.926C222.336 153.249 221.898 153.431 221.442 153.431Z" fill="#E6E6E6"/>
<path d="M216.039 182.731C214.317 182.731 212.633 182.22 211.201 181.261C209.769 180.302 208.652 178.939 207.993 177.345C207.334 175.75 207.161 173.996 207.497 172.303C207.833 170.61 208.663 169.055 209.881 167.835C211.099 166.615 212.651 165.784 214.34 165.447C216.03 165.11 217.781 165.283 219.372 165.944C220.964 166.604 222.324 167.722 223.281 169.157C224.238 170.592 224.749 172.28 224.749 174.005C224.749 176.32 223.831 178.539 222.198 180.176C220.564 181.812 218.349 182.731 216.039 182.731Z" fill="#6C63FF"/>
<path d="M220.939 173.591L218.47 169.98C218.361 169.82 218.192 169.709 218.001 169.674C217.81 169.638 217.613 169.68 217.452 169.79C217.292 169.9 217.182 170.069 217.146 170.26C217.111 170.451 217.152 170.649 217.262 170.809L218.859 173.145H212.603C212.375 173.145 212.157 173.235 211.996 173.397C211.835 173.558 211.744 173.777 211.744 174.005C211.744 174.234 211.835 174.453 211.996 174.614C212.157 174.776 212.375 174.866 212.603 174.866H218.938L217.262 177.316C217.152 177.477 217.111 177.674 217.147 177.866C217.182 178.057 217.292 178.226 217.452 178.336C217.613 178.446 217.81 178.488 218.001 178.452C218.192 178.416 218.361 178.306 218.47 178.146L220.939 174.535C221.02 174.391 221.062 174.228 221.062 174.063C221.062 173.898 221.02 173.735 220.939 173.591L220.939 173.591Z" fill="white"/>
<path d="M263.134 16.9313H35.1147C34.8832 16.9264 34.6628 16.8307 34.5008 16.6649C34.3388 16.4991 34.248 16.2763 34.248 16.0443C34.248 15.8122 34.3388 15.5894 34.5008 15.4236C34.6628 15.2578 34.8832 15.1622 35.1147 15.1572H263.134C263.366 15.1622 263.586 15.2578 263.748 15.4236C263.91 15.5894 264.001 15.8122 264.001 16.0443C264.001 16.2763 263.91 16.4991 263.748 16.6649C263.586 16.8307 263.366 16.9264 263.134 16.9313Z" fill="#CACACA"/>
<path d="M50.2695 10.6286C53.135 10.6286 55.458 8.24934 55.458 5.31432C55.458 2.3793 53.135 0 50.2695 0C47.404 0 45.0811 2.3793 45.0811 5.31432C45.0811 8.24934 47.404 10.6286 50.2695 10.6286Z" fill="#3F3D56"/>
<path d="M68.1933 10.6286C71.0589 10.6286 73.3818 8.24934 73.3818 5.31432C73.3818 2.3793 71.0589 0 68.1933 0C65.3278 0 63.0049 2.3793 63.0049 5.31432C63.0049 8.24934 65.3278 10.6286 68.1933 10.6286Z" fill="#3F3D56"/>
<path d="M86.1172 10.6286C88.9827 10.6286 91.3056 8.24934 91.3056 5.31432C91.3056 2.3793 88.9827 0 86.1172 0C83.2517 0 80.9287 2.3793 80.9287 5.31432C80.9287 8.24934 83.2517 10.6286 86.1172 10.6286Z" fill="#3F3D56"/>
<path d="M252.342 1.31738H239.61C239.358 1.32239 239.117 1.42635 238.941 1.60695C238.764 1.78755 238.665 2.03038 238.665 2.28329C238.665 2.53621 238.764 2.77904 238.941 2.95964C239.117 3.14024 239.358 3.2442 239.61 3.2492H252.342C252.595 3.2442 252.835 3.14024 253.012 2.95964C253.189 2.77904 253.288 2.53621 253.288 2.28329C253.288 2.03038 253.189 1.78755 253.012 1.60695C252.835 1.42635 252.595 1.32239 252.342 1.31738Z" fill="#3F3D56"/>
<path d="M252.342 4.94336H239.61C239.358 4.94836 239.117 5.05233 238.941 5.23293C238.764 5.41353 238.665 5.65635 238.665 5.90927C238.665 6.16218 238.764 6.40502 238.941 6.58562C239.117 6.76621 239.358 6.87017 239.61 6.87518H252.342C252.595 6.87017 252.835 6.76621 253.012 6.58562C253.189 6.40502 253.288 6.16218 253.288 5.90927C253.288 5.65635 253.189 5.41353 253.012 5.23293C252.835 5.05233 252.595 4.94836 252.342 4.94336Z" fill="#3F3D56"/>
<path d="M252.342 8.56348H239.61C239.358 8.56848 239.117 8.67244 238.941 8.85304C238.764 9.03364 238.665 9.27647 238.665 9.52939C238.665 9.7823 238.764 10.0251 238.941 10.2057C239.117 10.3863 239.358 10.4903 239.61 10.4953H252.342C252.595 10.4903 252.835 10.3863 253.012 10.2057C253.189 10.0251 253.288 9.7823 253.288 9.52939C253.288 9.27647 253.189 9.03364 253.012 8.85304C252.835 8.67244 252.595 8.56848 252.342 8.56348Z" fill="#3F3D56"/>
<path d="M63.6502 191.799C63.9992 191.506 64.2799 191.14 64.4726 190.727C64.6653 190.314 64.7653 189.864 64.7655 189.408C64.7657 188.952 64.6661 188.502 64.4738 188.089C64.2815 187.675 64.0011 187.31 63.6523 187.017L61.764 170.669L55.7686 172.06L59.1004 187.556C58.6483 188.176 58.4386 188.94 58.5113 189.704C58.5839 190.468 58.9338 191.179 59.4946 191.702C60.0554 192.225 60.7882 192.524 61.5541 192.541C62.32 192.559 63.0658 192.295 63.6502 191.799Z" fill="#FFB6B6"/>
<path d="M63.0301 173.334L56.089 177.672C56.089 177.672 55.6666 180.215 55.1893 173.825C55.1394 173.158 55.604 171.996 55.5529 171.311C55.4953 170.539 53.2872 170.187 53.229 169.406C53.1876 168.85 53.826 168.355 53.7848 167.8C53.7223 166.96 53.6603 166.124 53.5994 165.302C53.5484 164.614 52.788 164.178 52.739 163.514C52.6895 162.844 53.3515 161.947 53.3049 161.313C52.955 156.556 54.1649 144.588 54.1649 144.344C54.0714 143.733 53.8168 143.159 53.4273 142.679L53.7978 141.569L53.5528 139.486C53.2309 136.749 53.8052 133.981 55.1892 131.599L56.9521 130.442L65.0858 144.15C61.6631 156.011 59.4288 160.67 63.0301 173.334Z" fill="#6C63FF"/>
<path d="M57.6143 275.539H61.8131L63.8115 259.312H57.6143V275.539Z" fill="#FFB6B6"/>
<path d="M56.2443 272.657L62.9525 272.256V275.135L69.3301 279.549C69.6451 279.767 69.8824 280.08 70.0072 280.442C70.132 280.805 70.1379 281.198 70.024 281.564C69.9101 281.93 69.6823 282.25 69.374 282.478C69.0656 282.705 68.6928 282.828 68.31 282.828H60.3237L58.9471 279.979L58.4096 282.828H55.3984L56.2443 272.657Z" fill="#2F2E41"/>
<path d="M81.2002 275.539H85.399L87.3969 259.312H81.2002V275.539Z" fill="#FFB6B6"/>
<path d="M79.8292 272.657L86.5374 272.256V275.135L92.915 279.549C93.23 279.767 93.4673 280.08 93.5922 280.442C93.717 280.805 93.7229 281.198 93.6089 281.564C93.495 281.93 93.2673 282.25 92.9589 282.478C92.6505 282.705 92.2777 282.828 91.8949 282.828H83.9086L82.532 279.979L81.9946 282.828H78.9834L79.8292 272.657Z" fill="#2F2E41"/>
<path d="M55.8326 261.545H55.8489L56.6564 222.901C56.1339 221.891 55.8686 220.768 55.8844 219.63C55.9002 218.493 56.1964 217.377 56.7468 216.382L56.8624 216.172L56.5626 214.78C56.1776 212.991 56.3543 211.127 57.0684 209.443L57.8218 184.831C55.1304 167.355 67.9567 155.958 67.9567 155.958H87.1706L91.2956 170.158C94.0226 196.777 93.5278 234.977 89.2004 260.108L89.3184 260.168C89.5421 260.293 89.7092 260.5 89.785 260.745C89.8608 260.99 89.8395 261.255 89.7254 261.485C89.5255 262.066 89.019 262.417 88.5942 262.27L78.4471 261.916C78.2233 261.791 78.0562 261.585 77.9804 261.34C77.9046 261.094 77.9259 260.829 78.04 260.599C78.24 260.019 78.7464 259.668 79.1712 259.815L79.8612 260.164L79.1493 258.712C78.7206 257.838 78.5353 256.864 78.6127 255.893C78.6902 254.922 79.0275 253.99 79.5893 253.195L79.4646 249.999C78.9338 249.376 78.5684 248.629 78.4022 247.827C78.236 247.025 78.2744 246.194 78.5139 245.411L79.1984 243.173L78.3898 222.444L78.5531 217.794L78.2167 212.518L76.6613 188.788L70.774 217.97L64.7604 261.839C64.905 261.97 65.0124 262.136 65.0719 262.322C65.1313 262.508 65.1405 262.706 65.0987 262.897C65.0367 263.15 64.8907 263.374 64.6848 263.532C64.4789 263.691 64.2252 263.774 63.9656 263.769H55.8033C55.6321 263.769 55.4633 263.729 55.31 263.653C55.1566 263.577 55.023 263.466 54.9193 263.329C54.8157 263.193 54.7449 263.034 54.7125 262.866C54.6801 262.697 54.6869 262.524 54.7324 262.359C54.8013 262.121 54.9463 261.912 55.1452 261.765C55.344 261.618 55.5856 261.541 55.8326 261.545Z" fill="#2F2E41"/>
<path d="M102.524 185.446C102.812 185.093 103.018 184.68 103.129 184.238C103.24 183.796 103.252 183.335 103.166 182.887C103.08 182.439 102.897 182.016 102.629 181.647C102.362 181.278 102.017 180.972 101.62 180.751L96.6654 165.061L91.043 167.568L97.2529 182.147C96.9265 182.842 96.8657 183.632 97.0819 184.368C97.2981 185.105 97.7764 185.736 98.4262 186.143C99.0759 186.549 99.852 186.703 100.607 186.575C101.363 186.446 102.045 186.045 102.524 185.446H102.524Z" fill="#FFB6B6"/>
<path d="M82.1386 135.565C82.1386 135.565 87.7889 155.598 87.533 157.622C87.0052 161.796 61.0407 174.624 59.1097 168.915L59.3518 167.039C58.3763 165.084 64.3279 157.326 64.6168 156.311C64.9839 155.014 63.3218 150.753 63.3218 150.753C63.3218 150.753 64.4707 146.864 64.2871 144.457C64.1002 142.049 63.5461 142.42 61.5135 140.935C59.481 139.454 56.1533 132.602 56.1533 132.602C56.1533 132.602 57.6319 125.934 57.6319 124.636C57.6319 123.339 63.7059 121.129 64.4435 120.389C64.7646 119.96 65.0349 119.495 65.249 119.003C65.3986 118.704 65.3034 118.009 65.4632 117.665C65.5651 117.44 65.922 117.58 66.0274 117.348C66.1294 117.124 66.041 116.865 66.143 116.643C66.2755 116.351 66.5951 116.095 66.7208 115.819C67.2986 114.552 67.7915 113.521 67.9444 113.521C68.3115 113.521 80.1468 115.189 80.1468 115.189C80.791 116.187 81.5334 117.118 82.363 117.968C83.658 119.262 89.7184 122.412 89.7184 122.412L82.1386 135.565Z" fill="#6C63FF"/>
<path d="M98.1206 169.268C97.1961 170.195 92.6212 174.448 92.4342 173.334C92.2507 172.224 92.1507 172.091 91.4098 171.723C90.6688 171.352 90.6688 171.168 90.4853 169.871C90.3017 168.573 88.6362 167.276 88.8231 166.72C89.0067 166.165 88.8353 166.872 88.8353 166.313C88.8353 165.758 88.2813 163.721 87.5403 163.35C86.8028 162.979 85.6913 162.611 86.2487 161.685C86.8028 160.759 81.0312 132.969 81.0312 132.969L86.2079 122.783L89.7191 122.412C89.7191 122.412 90.786 123.024 91.1203 128.538C91.1372 128.817 91.4412 129.33 91.4541 129.635C91.4649 129.888 91.1853 129.93 91.1929 130.202C91.1946 130.26 91.1961 130.319 91.1976 130.378C91.2046 130.648 91.9332 130.847 91.9442 131.108C91.9637 131.574 92.2499 134.547 92.2807 134.984C92.3155 135.477 92.3565 135.951 92.4039 136.408C92.9148 141.377 93.0977 141.797 93.4143 143.383C93.9044 145.838 95.9358 160.176 95.9358 160.176C95.9358 160.176 97.4144 160.544 97.4144 161.842C97.4144 163.139 99.0451 165.747 98.3075 167.228C97.5665 168.713 99.0451 168.342 98.1206 169.268Z" fill="#6C63FF"/>
<path d="M72.9563 113.14C77.7992 113.14 81.7252 109.206 81.7252 104.354C81.7252 99.5019 77.7992 95.5684 72.9563 95.5684C68.1134 95.5684 64.1875 99.5019 64.1875 104.354C64.1875 109.206 68.1134 113.14 72.9563 113.14Z" fill="#FFB8B8"/>
<path d="M54.0602 122.818C52.2046 122.159 50.349 121.499 48.4934 120.838C48.8132 120.3 49.2205 119.82 49.6985 119.417C51.4652 117.939 53.9038 117.672 56.1469 117.173C58.3936 116.674 60.8322 115.652 61.6534 113.501C62.5065 111.264 61.2694 108.849 60.5514 106.57C59.4908 103.373 59.6195 99.8989 60.9139 96.7893C61.5752 95.2535 62.5808 93.891 63.8526 92.8076C65.1244 91.7242 66.6283 90.949 68.2476 90.5421C71.4967 89.8191 75.1688 90.998 77.1666 93.6622C78.4538 93.2753 79.8378 93.374 81.0573 93.9396C82.2768 94.5053 83.2473 95.4987 83.7857 96.7323C84.0391 97.3105 84.1519 97.9406 84.1148 98.571C84.0777 99.2013 83.8919 99.8138 83.5725 100.358C82.8793 101.409 81.3969 101.947 80.2807 101.363L80.9277 99.717C78.9263 100.397 77.6252 104.023 77.8954 106.125C78.162 108.222 79.3849 110.06 80.6255 111.773C81.8662 113.487 83.1885 115.218 83.7218 117.265C84.4896 120.211 83.4516 123.431 81.532 125.792C79.6124 128.154 76.9071 129.756 74.1059 130.935C72.009 131.819 69.83 132.491 67.6006 132.944C67.9987 132.168 68.3933 131.391 68.7914 130.615L64.0671 133.478C63.1535 133.567 62.2328 133.621 61.3121 133.639C58.6317 133.685 55.8981 133.404 53.4452 132.331C50.9889 131.256 48.8311 129.308 47.9423 126.775C47.6574 125.956 47.5226 125.092 47.5442 124.225C49.7162 123.755 51.8882 123.286 54.0602 122.818Z" fill="#2F2E41"/>
<path d="M138.8 283.497H122.536L122.466 283.37C122.259 282.992 122.058 282.591 121.87 282.18C120.195 278.587 119.487 274.477 118.862 270.851L118.392 268.118C118.335 267.787 118.378 267.446 118.515 267.14C118.652 266.833 118.878 266.575 119.162 266.398C119.447 266.221 119.778 266.132 120.113 266.145C120.448 266.157 120.772 266.269 121.043 266.467C123.515 268.269 125.987 270.069 128.461 271.867C129.397 272.55 130.467 273.34 131.491 274.194C131.59 273.714 131.693 273.231 131.797 272.755C131.868 272.427 132.035 272.127 132.278 271.895C132.52 271.662 132.826 271.508 133.156 271.45C133.487 271.393 133.827 271.436 134.133 271.574C134.439 271.711 134.697 271.937 134.875 272.222L136.777 275.285C138.165 277.522 139.39 279.726 139.141 282.104C139.142 282.133 139.14 282.162 139.134 282.19C139.084 282.58 138.992 282.964 138.858 283.335L138.8 283.497Z" fill="#F0F0F0"/>
<path d="M155.123 283.849L0.580116 284C0.42595 283.999 0.27841 283.937 0.169713 283.827C0.0610152 283.718 0 283.57 0 283.415C0 283.261 0.0610152 283.113 0.169713 283.003C0.27841 282.893 0.42595 282.831 0.580116 282.831L155.123 282.68C155.277 282.68 155.425 282.742 155.533 282.852C155.642 282.962 155.703 283.11 155.703 283.264C155.703 283.419 155.642 283.567 155.533 283.677C155.425 283.786 155.277 283.848 155.123 283.849Z" fill="#CACACA"/>
</g>
<defs>
<clipPath id="clip0_2128_90821">
<rect width="264" height="284" fill="white"/>
</clipPath>
</defs>
</svg>
