<svg width="21" height="20" viewBox="0 0 21 20" fill="none" xmlns="http://www.w3.org/2000/svg">
<path d="M8.5 17.748V14.4C8.5 13.117 9.495 12.108 10.967 11.532C10.0177 11.1789 9.01283 10.9988 8 11C6.11 11 4.364 11.617 2.953 12.66C3.39051 13.8973 4.12509 15.0083 5.09225 15.8955C6.05941 16.7826 7.22957 17.4187 8.5 17.748ZM17.38 14.086C16.985 13.553 15.67 13 14 13C11.994 13 10.5 13.797 10.5 14.4V18C11.8878 18.0008 13.252 17.6403 14.4583 16.954C15.6646 16.2678 16.6715 15.2794 17.38 14.086ZM8.05 9.5C8.64674 9.5 9.21903 9.26295 9.64099 8.84099C10.0629 8.41903 10.3 7.84674 10.3 7.25C10.3 6.65326 10.0629 6.08097 9.64099 5.65901C9.21903 5.23705 8.64674 5 8.05 5C7.45326 5 6.88097 5.23705 6.45901 5.65901C6.03705 6.08097 5.8 6.65326 5.8 7.25C5.8 7.84674 6.03705 8.41903 6.45901 8.84099C6.88097 9.26295 7.45326 9.5 8.05 9.5ZM14 10.5C14.5304 10.5 15.0391 10.2893 15.4142 9.91421C15.7893 9.53914 16 9.03043 16 8.5C16 7.96957 15.7893 7.46086 15.4142 7.08579C15.0391 6.71071 14.5304 6.5 14 6.5C13.4696 6.5 12.9609 6.71071 12.5858 7.08579C12.2107 7.46086 12 7.96957 12 8.5C12 9.03043 12.2107 9.53914 12.5858 9.91421C12.9609 10.2893 13.4696 10.5 14 10.5ZM10.5 20C4.977 20 0.5 15.523 0.5 10C0.5 4.477 4.977 0 10.5 0C16.023 0 20.5 4.477 20.5 10C20.5 15.523 16.023 20 10.5 20Z" fill="#626168"/>
</svg>
