<svg width="16" height="17" viewBox="0 0 16 17" fill="none" xmlns="http://www.w3.org/2000/svg">
<path d="M8.83236 14.8333H13.8324V7.31498L7.99902 2.77832L2.16569 7.31498V14.8333H7.16569V9.83331H8.83236V14.8333ZM15.499 15.6666C15.499 15.8877 15.4112 16.0996 15.2549 16.2559C15.0987 16.4122 14.8867 16.5 14.6657 16.5H1.33236C1.11134 16.5 0.899382 16.4122 0.743101 16.2559C0.586821 16.0996 0.499024 15.8877 0.499024 15.6666V6.90831C0.498936 6.78133 0.527871 6.656 0.58362 6.5419C0.639369 6.4278 0.720457 6.32795 0.82069 6.24998L7.48736 1.06498C7.63364 0.951187 7.81369 0.889404 7.99902 0.889404C8.18436 0.889404 8.3644 0.951187 8.51069 1.06498L15.1774 6.24998C15.2776 6.32795 15.3587 6.4278 15.4144 6.5419C15.4702 6.656 15.4991 6.78133 15.499 6.90831V15.6666Z" fill="#626168"/>
</svg>
