<svg width="20" height="15" viewBox="0 0 20 15" fill="none" xmlns="http://www.w3.org/2000/svg">
<path d="M13.9357 4.81768L18.4729 1.63345C18.5382 1.58762 18.6147 1.56061 18.6942 1.55538C18.7737 1.55015 18.8531 1.56689 18.9238 1.60379C18.9945 1.64069 19.0536 1.69632 19.0949 1.76462C19.1362 1.83292 19.158 1.91127 19.1579 1.99113V12.5296C19.158 12.6095 19.1362 12.6878 19.0949 12.7561C19.0536 12.8244 18.9945 12.8801 18.9238 12.9169C18.8531 12.9538 18.7737 12.9706 18.6942 12.9654C18.6147 12.9601 18.5382 12.9331 18.4729 12.8873L13.9357 9.70306V13.3671C13.9357 13.5985 13.844 13.8204 13.6808 13.984C13.5175 14.1476 13.2962 14.2395 13.0653 14.2395H0.880136C0.649299 14.2395 0.427917 14.1476 0.264691 13.984C0.101465 13.8204 0.00976563 13.5985 0.00976562 13.3671V1.15364C0.00976562 0.922268 0.101465 0.700372 0.264691 0.536767C0.427917 0.373162 0.649299 0.28125 0.880136 0.28125H13.0653C13.2962 0.28125 13.5175 0.373162 13.6808 0.536767C13.844 0.700372 13.9357 0.922268 13.9357 1.15364V4.81768ZM13.9357 7.57356L17.4172 10.0162V4.50362L13.9357 6.94631V7.57268V7.57356ZM1.75051 2.02603V12.4947H12.1949V2.02603H1.75051ZM3.49125 3.77081H5.23199V5.51559H3.49125V3.77081Z" fill="#202431"/>
</svg>
